<svg xmlns="http://www.w3.org/2000/svg" width="82" height="82" viewBox="0 0 82 82" fill="none"><g clip-path="url(#clip0_1900_22095)"><path d="M81.1401 22.47C79.7701 17.11 76.8601 12.5 72.7201 9.11C68.6901 5.82 63.7401 4 58.8001 4C55.0101 4 51.4001 5.02 48.0601 7.03C45.4201 8.62 43.0501 10.78 40.9801 13.48C36.2701 7.34 30.0501 4 23.1701 4C18.2301 4 13.2901 5.81 9.26007 9.11C5.13007 12.49 2.22007 17.11 0.860069 22.47C-0.619931 28.29 -0.909931 37.6 6.15007 48.87C12.6901 59.3 24.0201 68.96 39.8401 77.59C40.2001 77.79 40.5901 77.88 40.9901 77.88C41.3901 77.88 41.7801 77.78 42.1401 77.59C57.9601 68.96 69.3001 59.3 75.8401 48.87C82.9101 37.6 82.6201 28.3 81.1401 22.47V22.47ZM40.9901 72.73C22.2401 62.3 12.9601 51.95 8.55007 43.34H15.2601C16.1701 43.34 17.0001 42.83 17.4101 42.01L20.4101 36.02L28.5501 52.31C28.9601 53.12 29.7901 53.64 30.7001 53.64C31.6101 53.64 32.4401 53.13 32.8501 52.31L40.9901 36.02L43.9901 42.01C44.4001 42.82 45.2301 43.34 46.1401 43.34H64.3601C65.6901 43.34 66.7601 42.26 66.7601 40.94C66.7601 39.62 65.6801 38.54 64.3601 38.54H47.6301L43.1501 29.58C42.7401 28.77 41.9101 28.25 41.0001 28.25C40.0901 28.25 39.2601 28.76 38.8501 29.58L30.7101 45.87L22.5701 29.58C22.1601 28.77 21.3301 28.25 20.4201 28.25C19.5101 28.25 18.6801 28.76 18.2701 29.58L13.7901 38.54L5.53007 38.87C3.15007 31.91 4.86007 26.23 5.51007 23.65C7.74007 14.91 15.0101 8.8 23.1801 8.8C29.3601 8.8 34.9701 9.27 38.9401 15.83C39.3701 16.55 40.1501 16.99 40.9901 16.99C41.8301 16.99 42.6101 16.55 43.0501 15.83C47.0301 9.27 52.6101 8.8 58.8001 8.8C66.9801 8.8 74.2501 14.91 76.4801 23.65C78.0301 29.71 79.9701 51.03 40.9801 72.73H40.9901Z" fill="#0C7A07"></path><path d="M40.3 12.61C40.46 12.8 40.61 12.99 40.76 13.18L41 13.45C43.06 10.78 45.46 8.61 48.07 7.03C51.41 5.02 55.02 4 58.81 4C63.75 4 68.69 5.81 72.73 9.11C76.87 12.49 79.78 17.11 81.15 22.47C82.63 28.29 82.92 37.6 75.85 48.87C69.31 59.3 57.97 68.96 42.15 77.59L41.05 78.19L39.93 77.63L41 75.48L39.85 77.59C24.04 68.96 12.7 59.3 6.16001 48.87C-0.89999 37.62 -0.62999 28.32 0.85001 22.5C1.53001 19.61 2.69001 16.96 4.38001 14.51C5.73001 12.48 7.37001 10.67 9.28001 9.12L9.31001 9.15L9.28001 9.12C13.31 5.83 18.26 4.01 23.19 4.01C29.75 4.01 35.64 6.98 40.3 12.61ZM37.18 16.4C33.37 11.44 28.53 8.81 23.19 8.81C19.37 8.81 15.52 10.23 12.35 12.81C10.66 14.28 9.28001 15.83 8.18001 17.48C6.98001 19.34 6.08001 21.42 5.51001 23.67H5.50001H5.51001C4.26001 28.59 4.06001 36.51 10.22 46.33C16.16 55.81 26.51 64.69 41 72.75C55.49 64.69 65.84 55.8 71.79 46.33C77.95 36.5 77.75 28.58 76.5 23.67C75.39 19.32 73.04 15.57 69.7 12.85C66.52 10.25 62.66 8.82 58.82 8.82C55.92 8.82 53.14 9.61 50.56 11.16C48.45 12.43 46.52 14.2 44.82 16.41C43.9 17.6 42.51 18.29 41.01 18.29C39.5 18.29 38.11 17.6 37.19 16.41" fill="black"></path></g><defs><clipPath id="clip0_1900_22095"><rect width="82" height="82" fill="white"></rect></clipPath></defs></svg>