<svg xmlns="http://www.w3.org/2000/svg" width="83" height="82" viewBox="0 0 83 82" fill="none"><path d="M62.4852 36.5008L70.786 41.2933C72.7508 42.4276 73.4241 44.94 72.2898 46.9047V46.9048C71.1552 48.8696 68.6429 49.5428 66.6781 48.4085L58.3772 43.6159" stroke="black" stroke-width="4" stroke-miterlimit="10" stroke-linecap="round" stroke-linejoin="round"></path><path d="M58.3772 43.6154L69.0497 49.7772C71.0147 50.9116 71.6878 53.424 70.5535 55.3886C69.4192 57.3534 66.9068 58.0267 64.9418 56.8924L54.2693 50.7304" stroke="black" stroke-width="4" stroke-miterlimit="10" stroke-linecap="round" stroke-linejoin="round"></path><path d="M54.2695 50.7308L62.5704 55.5234C64.5352 56.6578 65.2085 59.1701 64.0741 61.1348C62.9396 63.0996 60.4274 63.7728 58.4626 62.6384L50.1616 57.8459" stroke="black" stroke-width="4" stroke-miterlimit="10" stroke-linecap="round" stroke-linejoin="round"></path><path d="M50.1616 57.8453L54.9051 60.5839C56.8698 61.7182 57.5429 64.2306 56.4086 66.1952V66.1954C55.2743 68.1602 52.7619 68.8333 50.7972 67.699L46.0537 64.9604" stroke="black" stroke-width="4" stroke-miterlimit="10" stroke-linecap="round" stroke-linejoin="round"></path><path d="M30.2381 22.626L20.1556 16.8047L8.5 38.5355L14.9039 42.2329" stroke="black" stroke-width="4" stroke-miterlimit="10" stroke-linecap="round" stroke-linejoin="round"></path><path d="M41.3103 62.2223L46.0537 64.9609" stroke="black" stroke-width="4" stroke-miterlimit="10" stroke-linecap="round" stroke-linejoin="round"></path><path d="M42.5618 24.9978L31.2075 31.5533C29.2427 32.6876 26.7305 32.0144 25.596 30.0497C24.4615 28.0849 25.1348 25.5725 27.0996 24.4382L41.4798 16.1358C42.8876 15.3231 44.5836 15.1775 46.1091 15.7387L53.7386 18.5449L62.0395 13.7524L74.5001 34.985L68.4652 39.9531L42.5618 24.9978Z" stroke="#FF0000" stroke-width="4" stroke-miterlimit="10" stroke-linecap="round" stroke-linejoin="round"></path><path d="M27.2913 61.8567C25.3264 60.7224 24.6532 58.2099 25.7877 56.2452L29.2109 50.316C30.3452 48.3512 32.8575 47.6779 34.8224 48.8122C36.7872 49.9467 37.4604 52.4591 36.3259 54.4239L32.9027 60.3531C31.7684 62.3179 29.2561 62.991 27.2913 61.8567Z" stroke="#FF0000" stroke-width="4" stroke-miterlimit="10" stroke-linecap="round" stroke-linejoin="round"></path><path d="M34.4064 65.9641C32.4416 64.8298 31.7685 62.3174 32.9029 60.3526L34.9569 56.795C36.0912 54.8302 38.6034 54.1571 40.5682 55.2916C42.533 56.4259 43.2063 58.9381 42.0719 60.9029L40.0179 64.4605C38.8835 66.4253 36.3712 67.0984 34.4064 65.9641Z" stroke="#FF0000" stroke-width="4" stroke-miterlimit="10" stroke-linecap="round" stroke-linejoin="round"></path><path d="M13.0609 53.6409C11.0961 52.5064 10.423 49.9941 11.5575 48.0294L14.9807 42.1002C16.115 40.1353 18.6273 39.4621 20.5921 40.5965C22.5569 41.7309 23.2302 44.2433 22.0957 46.2081L18.6725 52.1373C17.538 54.1019 15.0257 54.7752 13.0609 53.6409Z" stroke="#FF0000" stroke-width="4" stroke-miterlimit="10" stroke-linecap="round" stroke-linejoin="round"></path><path d="M20.1762 57.7488C18.2114 56.6145 17.5382 54.102 18.6728 52.1373L23.4653 43.8362C24.5996 41.8716 27.1119 41.1984 29.0767 42.3327C31.0415 43.4671 31.7146 45.9795 30.5801 47.9443L25.7876 56.2452C24.6533 58.2099 22.141 58.8831 20.1762 57.7488Z" stroke="#FF0000" stroke-width="4" stroke-miterlimit="10" stroke-linecap="round" stroke-linejoin="round"></path></svg>