<svg xmlns="http://www.w3.org/2000/svg" width="83" height="82" viewBox="0 0 83 82" fill="none"><path d="M41.1594 38.1327C43.6636 38.1327 46.1117 37.3901 48.1939 35.9987C50.2761 34.6073 51.8989 32.6298 52.8571 30.3161C53.8154 28.0024 54.0659 25.4565 53.5772 23.0003C53.0885 20.5442 51.8823 18.2882 50.1114 16.5176C48.3404 14.747 46.0841 13.5413 43.6279 13.053C41.1717 12.5648 38.6258 12.8159 36.3123 13.7746C33.9988 14.7333 32.0216 16.3565 30.6306 18.439C29.2397 20.5215 28.4975 22.9697 28.498 25.4739C28.5021 28.8304 29.8375 32.0483 32.2111 34.4214C34.5848 36.7946 37.8029 38.1293 41.1594 38.1327ZM41.1594 17.9376C42.6499 17.9376 44.107 18.3796 45.3463 19.2077C46.5857 20.0358 47.5516 21.2128 48.122 22.5899C48.6924 23.967 48.8417 25.4823 48.5509 26.9442C48.2601 28.4061 47.5423 29.7489 46.4883 30.8029C45.4344 31.8569 44.0915 32.5747 42.6296 32.8654C41.1677 33.1562 39.6524 33.007 38.2753 32.4366C36.8983 31.8662 35.7212 30.9002 34.8931 29.6609C34.065 28.4216 33.623 26.9645 33.623 25.4739C33.6258 23.476 34.4206 21.5607 35.8334 20.148C37.2461 18.7352 39.1614 17.9403 41.1594 17.9376Z" fill="#0C7A07"></path><path d="M17.2409 45.5741C19.1668 45.5741 21.0495 45.003 22.6508 43.9331C24.2521 42.8631 25.5002 41.3423 26.2372 39.563C26.9742 37.7837 27.167 35.8258 26.7913 33.9369C26.4156 32.048 25.4882 30.313 24.1264 28.9512C22.7646 27.5894 21.0295 26.662 19.1406 26.2862C17.2517 25.9105 15.2938 26.1033 13.5145 26.8403C11.7352 27.5774 10.2145 28.8254 9.14448 30.4268C8.07451 32.0281 7.50342 33.9107 7.50342 35.8366C7.50342 38.4192 8.52933 40.8959 10.3555 42.7221C12.1816 44.5482 14.6584 45.5741 17.2409 45.5741ZM17.2409 31.2241C18.1532 31.2241 19.045 31.4946 19.8035 32.0015C20.562 32.5083 21.1532 33.2287 21.5023 34.0715C21.8514 34.9143 21.9428 35.8417 21.7648 36.7365C21.5868 37.6312 21.1475 38.4531 20.5024 39.0982C19.8574 39.7432 19.0355 40.1825 18.1408 40.3605C17.246 40.5385 16.3186 40.4471 15.4758 40.098C14.633 39.7489 13.9126 39.1577 13.4058 38.3992C12.8989 37.6407 12.6284 36.7489 12.6284 35.8366C12.6284 34.6133 13.1144 33.4401 13.9794 32.5751C14.8444 31.7101 16.0176 31.2241 17.2409 31.2241Z" fill="black"></path><path d="M65.0752 45.5741C67.001 45.5741 68.8837 45.003 70.485 43.9331C72.0863 42.8631 73.3344 41.3423 74.0714 39.563C74.8084 37.7837 75.0013 35.8258 74.6255 33.9369C74.2498 32.048 73.3224 30.313 71.9606 28.9512C70.5988 27.5894 68.8637 26.662 66.9748 26.2862C65.086 25.9105 63.1281 26.1033 61.3488 26.8403C59.5695 27.5774 58.0487 28.8254 56.9787 30.4268C55.9087 32.0281 55.3376 33.9107 55.3376 35.8366C55.3376 38.4192 56.3636 40.8959 58.1897 42.7221C60.0158 44.5482 62.4926 45.5741 65.0752 45.5741ZM65.0752 31.2241C65.9874 31.2241 66.8792 31.4946 67.6377 32.0015C68.3962 32.5083 68.9874 33.2287 69.3365 34.0715C69.6857 34.9143 69.777 35.8417 69.599 36.7365C69.421 37.6312 68.9817 38.4531 68.3367 39.0982C67.6916 39.7432 66.8697 40.1825 65.975 40.3605C65.0803 40.5385 64.1528 40.4471 63.31 40.098C62.4672 39.7489 61.7468 39.1577 61.24 38.3992C60.7332 37.6407 60.4626 36.7489 60.4626 35.8366C60.4626 34.6133 60.9486 33.4401 61.8136 32.5751C62.6786 31.7101 63.8518 31.2241 65.0752 31.2241Z" fill="black"></path><path d="M65.4159 50.7147C63.1695 50.7295 60.9623 51.3047 58.9943 52.388C57.1233 49.426 54.5445 46.9763 51.4905 45.2598C48.4364 43.5433 45.003 42.614 41.5001 42.5557C37.9972 42.614 34.5639 43.5433 31.5098 45.2598C28.4557 46.9763 25.8769 49.426 24.0059 52.388C22.0379 51.3047 19.8307 50.7295 17.5843 50.7147C13.5532 50.9114 9.76367 52.6949 7.04294 55.6758C4.32222 58.6567 2.89132 62.593 3.06261 66.6252C3.06261 67.3048 3.33259 67.9566 3.81315 68.4372C4.29371 68.9178 4.94549 69.1877 5.62511 69.1877C6.30473 69.1877 6.95651 68.9178 7.43707 68.4372C7.91763 67.9566 8.18761 67.3048 8.18761 66.6252C8.01966 63.9527 8.91193 61.3217 10.671 59.3027C12.43 57.2837 14.914 56.0394 17.5843 55.8397C19.0004 55.8506 20.3906 56.2199 21.6254 56.9133C20.4177 59.9569 19.7994 63.2022 19.8034 66.4766C19.8034 67.1562 20.0734 67.808 20.554 68.2886C21.0345 68.7691 21.6863 69.0391 22.3659 69.0391C23.0455 69.0391 23.6973 68.7691 24.1779 68.2886C24.6584 67.808 24.9284 67.1562 24.9284 66.4766C24.9284 56.1113 32.3597 47.6807 41.5001 47.6807C50.6405 47.6807 58.0718 56.1113 58.0718 66.4766C58.0718 67.1562 58.3418 67.808 58.8223 68.2886C59.3029 68.7691 59.9547 69.0391 60.6343 69.0391C61.3139 69.0391 61.9657 68.7691 62.4463 68.2886C62.9268 67.808 63.1968 67.1562 63.1968 66.4766C63.2008 63.2022 62.5825 59.9569 61.3749 56.9133C62.6096 56.2199 63.9998 55.8506 65.4159 55.8397C68.0863 56.0394 70.5702 57.2837 72.3293 59.3027C74.0883 61.3217 74.9806 63.9527 74.8126 66.6252C74.8126 67.3048 75.0826 67.9566 75.5631 68.4372C76.0437 68.9178 76.6955 69.1877 77.3751 69.1877C78.0547 69.1877 78.7065 68.9178 79.1871 68.4372C79.6676 67.9566 79.9376 67.3048 79.9376 66.6252C80.1089 62.593 78.678 58.6567 75.9573 55.6758C73.2366 52.6949 69.447 50.9114 65.4159 50.7147Z" fill="black"></path></svg>