<svg xmlns="http://www.w3.org/2000/svg" width="83" height="82" viewBox="0 0 83 82" fill="none"><g clip-path="url(#clip0_987_17491)"><path d="M43.5148 48.7453C42.3649 48.7453 41.4328 49.6774 41.4328 50.8273C41.4318 56.2167 37.0623 60.5848 31.6729 60.584C26.2835 60.5831 21.9152 56.2135 21.9162 50.8241C21.9171 45.4353 26.2857 41.0674 31.6745 41.0674C32.8244 41.0674 33.7565 40.1353 33.7565 38.9854C33.7565 37.8354 32.8244 36.9033 31.6745 36.9033C23.9867 36.9086 17.7558 43.1395 17.7505 50.8273C17.7505 58.5169 23.9841 64.7505 31.6737 64.7505C39.3633 64.7505 45.5969 58.5169 45.5969 50.8273C45.5969 49.6774 44.6647 48.7453 43.5148 48.7453Z" fill="#FF0000"></path><path d="M60.0557 55.616C59.8571 54.4834 58.778 53.7262 57.6454 53.9248L53.2875 54.6887C52.4904 54.8284 51.8464 55.4174 51.6363 56.199C51.1717 57.9236 50.4841 59.5802 49.5911 61.127C49.184 61.8298 49.2227 62.7052 49.6904 63.3692L52.2337 66.9935C52.5895 67.4983 52.53 68.1861 52.0927 68.6223L49.479 71.2361C49.0434 71.673 48.3566 71.7332 47.8518 71.3786L44.2275 68.8353C43.5635 68.3677 42.688 68.3289 41.9853 68.736C40.4386 69.6292 38.782 70.3168 37.0573 70.7812C36.2757 70.9913 35.6867 71.6353 35.547 72.4324L34.7734 76.7855C34.6676 77.3933 34.1395 77.8367 33.5226 77.8361H29.8246C29.2077 77.8367 28.6798 77.3933 28.5738 76.7855L27.8098 72.4292C27.6702 71.6321 27.0811 70.9881 26.2996 70.778C24.5745 70.3134 22.9174 69.6259 21.37 68.7328C20.6672 68.3257 19.7918 68.3645 19.1278 68.8321L15.5098 71.3738C15.005 71.7297 14.3173 71.6701 13.8811 71.2329L11.2673 68.6191C10.831 68.1833 10.771 67.4971 11.1248 66.9919L13.6681 63.3676C14.1355 62.7036 14.1745 61.8282 13.7673 61.1254C12.8738 59.5788 12.1863 57.9221 11.7222 56.1974C11.512 55.4158 10.868 54.8268 10.0709 54.6871L5.71469 53.9232C5.10802 53.8175 4.66503 53.2914 4.66407 52.6756V48.9775C4.66343 48.3606 5.1069 47.8328 5.71469 47.7267L10.0709 46.9628C10.868 46.8231 11.512 46.2341 11.7222 45.4525C12.186 43.726 12.8735 42.0678 13.7673 40.5197C14.1745 39.8169 14.1355 38.9415 13.6681 38.2775L11.1264 34.6644C10.7705 34.1596 10.8301 33.4719 11.2673 33.0356L13.8827 30.4202C14.3186 29.9838 15.0054 29.9244 15.5098 30.2793L19.1342 32.8226C19.7982 33.2902 20.6736 33.329 21.3764 32.9219C22.9236 32.0287 24.5808 31.3411 26.306 30.8767C27.0875 30.6666 27.6766 30.0226 27.8163 29.2255L28.5802 24.8692C28.7788 23.7366 28.0216 22.6575 26.889 22.4589C25.7563 22.2603 24.6772 23.0175 24.4786 24.1501L23.9373 27.2411C22.7499 27.6334 21.594 28.1153 20.4795 28.6825L17.909 26.8792C15.7494 25.3596 12.8095 25.6159 10.9454 27.4862L8.32204 30.0919C6.45349 31.9569 6.19804 34.896 7.71665 37.0555L9.52 39.626C8.95257 40.7409 8.47066 41.8974 8.0786 43.0854L4.98758 43.6267C2.39017 44.0829 0.496801 46.3404 0.500004 48.9775V52.6756C0.496641 55.3153 2.39353 57.5746 4.99399 58.028L8.085 58.5709C8.47707 59.7583 8.95898 60.9143 9.52641 62.0287L7.71665 64.5992C6.19852 66.7591 6.45461 69.6981 8.32364 71.5628L10.939 74.1765C12.8037 76.0457 15.7432 76.3012 17.9026 74.7819L20.4651 72.9786C21.5796 73.5458 22.7355 74.0276 23.9229 74.42L24.4642 77.511C24.9203 80.1126 27.1833 82.0079 29.8246 82.0002H33.5226C36.163 82.0034 38.4223 80.1057 38.875 77.5046L39.418 74.4136C40.6054 74.0213 41.7614 73.5394 42.8757 72.9722L45.4479 74.7755C47.6076 76.2944 50.5471 76.0382 52.4114 74.1685L55.0268 71.5532C56.8958 69.6885 57.1519 66.7494 55.6338 64.5896L53.832 62.0271C54.3993 60.9126 54.8811 59.7567 55.2734 58.5693L58.3645 58.0264C59.4971 57.8278 60.2543 56.7487 60.0557 55.616Z" fill="black"></path><path d="M78.5923 18.8984L76.4142 18.5173C76.1421 17.7319 75.8211 16.9642 75.4532 16.219L76.7345 14.4141C78.0545 12.537 77.832 9.98238 76.2076 8.36176L74.1447 6.29415C72.5233 4.66632 69.9648 4.44306 68.086 5.76563L66.2747 7.03567C65.5295 6.66763 64.7618 6.34668 63.9764 6.07473L63.6017 3.90622C63.2074 1.64513 61.2427 -0.00367743 58.9475 6.1598e-06H56.0343C53.7392 -0.00287665 51.7752 1.64673 51.3817 3.90782L50.999 6.08594C50.2136 6.35789 49.4459 6.67884 48.7007 7.04688L46.8894 5.76563C45.0123 4.44562 42.4577 4.66808 40.837 6.29255L38.7774 8.35536C37.1496 9.97678 36.9264 12.5353 38.2489 14.4141L39.519 16.2254C39.1509 16.9706 38.83 17.7383 38.558 18.5237L36.3879 18.8984C34.1275 19.2927 32.4788 21.2564 32.4817 23.551V26.4642C32.4772 28.7599 34.1263 30.7255 36.3879 31.12L38.5644 31.5011C38.8364 32.2865 39.1573 33.0542 39.5254 33.7994L38.2537 35.6108C36.9336 37.4871 37.1546 40.0413 38.7774 41.6631L40.837 43.7227C42.458 45.3481 45.0136 45.5705 46.891 44.2496L48.7071 42.9795C49.4525 43.3474 50.22 43.6684 51.0054 43.9405L51.3881 46.1186C51.7824 48.379 53.7461 50.0277 56.0407 50.0248H58.9539C61.2491 50.0248 63.2112 48.3725 63.6017 46.1106L63.9828 43.9341C64.7682 43.6621 65.5359 43.3412 66.2811 42.9731L68.086 44.2512C69.9647 45.5744 72.5236 45.3511 74.1447 43.7227L76.206 41.6614C77.8295 40.0411 78.0524 37.4879 76.7345 35.6108L75.4612 33.793C75.8291 33.0476 76.1501 32.2801 76.4222 31.4947L78.6003 31.112C80.8558 30.7154 82.5004 28.7559 82.5001 26.4658V23.5526C82.5038 21.2569 80.854 19.2921 78.5923 18.8984ZM78.336 26.4706C78.3362 26.7424 78.1408 26.9748 77.8732 27.0216L74.4394 27.6238C73.6423 27.7634 72.9983 28.3525 72.7882 29.134C72.432 30.4563 71.905 31.7263 71.2203 32.9121C70.8132 33.6149 70.8519 34.4903 71.3196 35.1543L73.3231 38.0115C73.4798 38.2339 73.4534 38.537 73.2607 38.729L71.2011 40.7886C71.0068 40.9752 70.7073 40.9966 70.4884 40.8399L67.6264 38.8379C66.9624 38.3702 66.087 38.3315 65.3842 38.7386C64.1984 39.4234 62.9284 39.9505 61.6061 40.3065C60.8262 40.5192 60.2398 41.1643 60.1022 41.9609L59.5001 45.3947C59.4533 45.6623 59.2209 45.8577 58.9491 45.8575H56.0343C55.7625 45.8577 55.5301 45.6623 55.4833 45.3947L54.8796 41.9609C54.7399 41.1638 54.1508 40.5199 53.3693 40.3097C52.0465 39.9535 50.776 39.4265 49.5896 38.7418C48.8868 38.3347 48.0114 38.3734 47.3474 38.8411L44.4982 40.8399C44.2758 40.9965 43.9727 40.9701 43.7807 40.7774L41.7211 38.7178C41.5284 38.5258 41.502 38.2227 41.6586 38.0003L43.6622 35.1431C44.1299 34.4791 44.1686 33.6037 43.7615 32.9009C43.0765 31.7153 42.5494 30.4451 42.1936 29.1228C41.9804 28.3435 41.3355 27.7578 40.5392 27.6206L37.1054 27.0184C36.8378 26.9716 36.6424 26.7392 36.6426 26.4674L36.6442 23.5526C36.644 23.2808 36.8394 23.0484 37.107 23.0016L40.5392 22.3979C41.3363 22.2582 41.9802 21.6691 42.1904 20.8876C42.5464 19.5653 43.0735 18.2953 43.7583 17.1095C44.1654 16.4067 44.1267 15.5313 43.659 14.8673L41.6603 12.0117C41.5036 11.7893 41.53 11.4863 41.7227 11.2942L43.7839 9.23301C43.976 9.04035 44.279 9.01392 44.5014 9.17055L47.357 11.1741C48.021 11.6416 48.8964 11.6805 49.5992 11.2734C50.785 10.5886 52.055 10.0615 53.3773 9.70547C54.1588 9.49535 54.7479 8.85136 54.8876 8.05426L55.4897 4.62051C55.5388 4.3577 55.767 4.16647 56.0343 4.16407H58.9475C59.2193 4.16391 59.4517 4.3593 59.4985 4.62692L60.1006 8.06067C60.2403 8.85777 60.8294 9.50176 61.6109 9.71188C62.9332 10.0677 64.2034 10.5948 65.389 11.2798C66.0918 11.6869 66.9672 11.6482 67.6312 11.1805L70.4884 9.17696C70.7108 9.02033 71.0139 9.04675 71.2059 9.23942L73.2671 11.3006C73.4543 11.4935 73.4779 11.792 73.3231 12.0117L71.3196 14.8737C70.8519 15.5377 70.8132 16.4131 71.2203 17.1159C71.905 18.3017 72.432 19.5717 72.7882 20.894C72.9983 21.6756 73.6423 22.2646 74.4394 22.4043L77.8732 23.0065C78.1408 23.0532 78.3362 23.2856 78.336 23.5574V26.4706Z" fill="black"></path><path d="M57.49 15.0625C51.9963 15.0625 47.5427 19.5161 47.5427 25.0098C47.549 30.5009 51.9989 34.9509 57.49 34.9571C62.9837 34.9571 67.4373 30.5035 67.4373 25.0098C67.4373 19.5161 62.9837 15.0625 57.49 15.0625ZM57.49 30.793C54.296 30.793 51.7068 28.2038 51.7068 25.0098C51.706 21.8142 54.2944 19.2221 57.49 19.2186V19.2266C60.684 19.2266 63.2733 21.8158 63.2733 25.0098C63.2733 28.2038 60.684 30.793 57.49 30.793Z" fill="#FF0000"></path></g><defs><clipPath id="clip0_987_17491"><rect width="82" height="82" fill="white" transform="translate(0.5)"></rect></clipPath></defs></svg>