<svg xmlns="http://www.w3.org/2000/svg" width="83" height="82" viewBox="0 0 83 82" fill="none"><path fill-rule="evenodd" clip-rule="evenodd" d="M36.3566 13.4277C36.3566 13.4283 36.3565 13.4289 36.3565 13.4295L36.1164 15.8779C39.5903 15.5371 43.2375 15.5189 46.883 15.8734L46.6434 13.4297C46.6433 13.4291 46.6433 13.4286 46.6432 13.428C46.5711 12.7148 45.9694 12.1699 45.2504 12.1699H37.7495C37.0304 12.1699 36.4287 12.7148 36.3566 13.4277ZM51.9805 16.6227L51.6191 12.9373L51.6186 12.9328C51.2919 9.66099 48.5374 7.16992 45.2504 7.16992H37.7495C34.4626 7.16992 31.7078 9.66088 31.3812 12.933L31.0184 16.6324C29.0992 17.0176 27.271 17.506 25.5695 18.0876C22.1321 19.2625 19.0783 20.863 16.8378 22.8813C14.5873 24.9087 12.9998 27.5182 12.9998 30.6003C12.9998 34.0752 15.0555 36.9768 17.8578 39.1457C20.6776 41.328 24.5343 43.0123 28.9216 44.1072C30.2612 44.4415 31.6182 43.6266 31.9526 42.2869C32.2869 40.9473 31.4719 39.5903 30.1323 39.256C26.1851 38.2709 23.0283 36.8248 20.918 35.1916C18.7904 33.5449 17.9998 31.9459 17.9998 30.6003C17.9998 29.3683 18.6143 28.0106 20.1844 26.5962C21.7645 25.1728 24.1498 23.8568 27.1866 22.8189C33.2515 20.7459 41.3817 19.9637 49.2845 21.2182M51.9805 16.6227C56.6145 17.5496 60.723 19.0919 63.8389 21.129C67.3189 23.404 70 26.6188 70 30.6003C70 34.0751 67.9443 36.9768 65.142 39.1457C62.3222 41.328 58.4655 43.0123 54.0783 44.1072C52.7387 44.4415 51.3817 43.6266 51.0473 42.2869C50.713 40.9473 51.528 39.5903 52.8676 39.256C56.8147 38.2709 59.9715 36.8248 62.0817 35.1916C64.2094 33.5449 65 31.9459 65 30.6003C65 29.0607 63.9462 27.1728 61.1029 25.314C58.3178 23.4932 54.2237 22.0034 49.2845 21.2182" fill="#FF0000"></path><path fill-rule="evenodd" clip-rule="evenodd" d="M26.5339 28.7868C26.4238 27.771 26.9482 26.7963 27.8319 26.32C27.826 26.3234 27.8279 26.3228 27.8387 26.3171L27.8501 26.311L27.88 26.2954C27.8992 26.2855 27.9296 26.2703 27.9678 26.2525C27.9476 26.2617 27.9293 26.2703 27.9131 26.2781C28.0699 26.2009 28.2372 26.139 28.4136 26.0949C28.424 26.0924 28.4343 26.0898 28.4446 26.0872C37.0273 23.9469 46.0047 23.9495 54.5864 26.0949C55.7342 26.3819 56.5237 27.4341 56.4782 28.6164L55.8779 44.2249C55.6941 49.0035 53.1948 53.1639 49.4852 55.6427L51.5713 61.3805H58.7732C62.6038 61.3805 65.9436 63.9879 66.8731 67.7058L66.8776 67.7242L67.85 71.7425C68.1748 73.0845 67.3501 74.4356 66.0082 74.7604C64.6662 75.0851 63.315 74.2605 62.9903 72.9185L62.0204 68.9106C61.6445 67.4223 60.3063 66.3805 58.7732 66.3805H57.5201V72.3305C57.5201 73.7112 56.4008 74.8305 55.0201 74.8305C53.6394 74.8305 52.5201 73.7112 52.5201 72.3305V66.3805H50.7359C50.2742 66.7376 49.6267 67.1882 48.8071 67.6352C47.1012 68.5657 44.6112 69.5005 41.4999 69.5005C38.3887 69.5005 35.8987 68.5657 34.1928 67.6352C33.3733 67.1882 32.7258 66.7376 32.2642 66.3805H30.48V72.3305C30.48 73.7112 29.3607 74.8305 27.98 74.8305C26.5993 74.8305 25.48 73.7112 25.48 72.3305V66.3805H24.2269C22.6937 66.3805 21.3555 67.4223 20.9797 68.9106L20.0098 72.9185C19.685 74.2605 18.3339 75.0851 16.9919 74.7604C15.6499 74.4356 14.8253 73.0845 15.1501 71.7425L16.1225 67.7242L16.127 67.7058C17.0565 63.9879 20.3963 61.3805 24.2269 61.3805H31.4289L33.5155 55.6424C29.81 53.1674 27.3064 49.0133 27.1222 44.2249C26.8173 36.2981 26.6705 32.3944 26.5983 30.4728L26.5972 30.4426C26.5617 29.4989 26.5448 29.0481 26.5358 28.8317C26.5351 28.8145 26.5345 28.7996 26.5339 28.7868ZM37.6996 52.2585C37.6516 52.2348 37.6025 52.2125 37.5524 52.1917C34.4543 50.7538 32.2585 47.6736 32.1185 44.0327C31.8244 36.386 31.6774 32.4846 31.6027 30.4948C38.1335 29.1466 44.8715 29.1469 51.4023 30.4958L50.8816 44.0327C50.7413 47.6805 48.5332 50.7761 45.412 52.2087C45.3869 52.2196 45.3621 52.2308 45.3376 52.2424C44.1648 52.7684 42.8654 53.0604 41.5 53.0604C40.1503 53.0604 38.8637 52.7745 37.6996 52.2585ZM38.1035 57.6563L36.1605 62.9995C36.2929 63.0803 36.4352 63.1629 36.5871 63.2457C37.7411 63.8752 39.4112 64.5005 41.4999 64.5005C43.5887 64.5005 45.2588 63.8752 46.4129 63.2457C46.5649 63.1628 46.7072 63.0802 46.8397 62.9994L44.8973 57.6566C43.8072 57.9206 42.6694 58.0604 41.5 58.0604C40.3316 58.0604 39.194 57.9206 38.1035 57.6563ZM27.9131 26.2781C27.8857 26.2916 27.8586 26.3056 27.8319 26.32C27.8411 26.3146 27.8696 26.2991 27.9131 26.2781Z" fill="black"></path></svg>