<svg xmlns="http://www.w3.org/2000/svg" width="83" height="82" viewBox="0 0 83 82" fill="none"><g clip-path="url(#clip0_987_17616)"><path d="M9.00939 49.0049C8.51316 49.0049 8.03001 49.164 7.63082 49.4588C7.23163 49.7535 6.93743 50.1685 6.79137 50.6427L0.602676 70.756C0.495847 71.1031 0.471971 71.4704 0.532969 71.8285C0.593966 72.1865 0.738136 72.5252 0.953881 72.8174C1.16963 73.1096 1.45093 73.347 1.77516 73.5107C2.09939 73.6743 2.4575 73.7596 2.82069 73.7596H25.2547C25.5622 73.764 25.8676 73.7072 26.1529 73.5925C26.4383 73.4778 26.6981 73.3076 26.9171 73.0916C27.1361 72.8757 27.31 72.6184 27.4287 72.3347C27.5474 72.0509 27.6085 71.7464 27.6085 71.4389C27.6085 71.1313 27.5474 70.8268 27.4287 70.5431C27.31 70.2594 27.1361 70.0021 26.9171 69.7861C26.6981 69.5702 26.4383 69.4 26.1529 69.2853C25.8676 69.1706 25.5622 69.1138 25.2547 69.1181H5.96339L10.7228 53.6464H33.598L38.3573 69.1181H32.9906C32.683 69.1138 32.3777 69.1706 32.0923 69.2853C31.807 69.4 31.5472 69.5702 31.3282 69.7861C31.1092 70.0021 30.9353 70.2594 30.8166 70.5431C30.6979 70.8268 30.6368 71.1313 30.6368 71.4389C30.6368 71.7464 30.6979 72.0509 30.8166 72.3347C30.9353 72.6184 31.1092 72.8757 31.3282 73.0916C31.5472 73.3076 31.807 73.4778 32.0923 73.5925C32.3777 73.7072 32.683 73.764 32.9906 73.7596H41.5C41.8632 73.7596 42.2213 73.6743 42.5456 73.5107C42.8698 73.347 43.1511 73.1096 43.3668 72.8174C43.5826 72.5252 43.7267 72.1865 43.7877 71.8285C43.8487 71.4704 43.8249 71.1031 43.718 70.756L37.5293 50.6427C37.3833 50.1685 37.0891 49.7535 36.6899 49.4588C36.2907 49.164 35.8075 49.0049 35.3113 49.0049H9.00939Z" fill="#29292E"></path><path d="M47.6886 49.0049C47.1924 49.0049 46.7092 49.164 46.3101 49.4588C45.9109 49.7535 45.6167 50.1685 45.4706 50.6427L43.2556 57.8407C43.1611 58.1333 43.1257 58.4417 43.1514 58.7481C43.1772 59.0545 43.2635 59.3527 43.4055 59.6254C43.5474 59.8982 43.7421 60.14 43.9783 60.3368C44.2145 60.5337 44.4875 60.6817 44.7813 60.7721C45.0752 60.8626 45.3841 60.8938 45.6901 60.8639C45.9961 60.834 46.2931 60.7436 46.5638 60.5979C46.8346 60.4523 47.0738 60.2543 47.2674 60.0154C47.461 59.7766 47.6052 59.5016 47.6916 59.2066L49.402 53.6464H72.2772L77.0366 69.1181H48.4622C48.1547 69.1138 47.8493 69.1706 47.564 69.2853C47.2786 69.4 47.0189 69.5702 46.7998 69.7861C46.5808 70.0021 46.4069 70.2594 46.2882 70.5431C46.1695 70.8268 46.1084 71.1313 46.1084 71.4389C46.1084 71.7464 46.1695 72.0509 46.2882 72.3347C46.4069 72.6184 46.5808 72.8757 46.7998 73.0916C47.0189 73.3076 47.2786 73.4778 47.564 73.5925C47.8493 73.7072 48.1547 73.764 48.4622 73.7596H80.1792C80.5424 73.7596 80.9006 73.6743 81.2248 73.5107C81.549 73.347 81.8303 73.1096 82.0461 72.8174C82.2618 72.5252 82.406 72.1865 82.467 71.8285C82.528 71.4704 82.5041 71.1031 82.3973 70.756L76.2086 50.6427C76.0625 50.1685 75.7683 49.7535 75.3691 49.4588C74.9699 49.164 74.4868 49.0049 73.9906 49.0049H47.6886Z" fill="#29292E"></path><path d="M28.349 28.8916C27.8528 28.8916 27.3696 29.0507 26.9704 29.3455C26.5712 29.6402 26.277 30.0552 26.131 30.5294L22.3235 42.9068C22.229 43.1994 22.1936 43.5078 22.2193 43.8142C22.245 44.1206 22.3314 44.4188 22.4733 44.6916C22.6153 44.9643 22.81 45.2061 23.0462 45.403C23.2824 45.5998 23.5553 45.7478 23.8492 45.8383C24.143 45.9287 24.4519 45.9599 24.7579 45.93C25.0639 45.9001 25.361 45.8097 25.6317 45.664C25.9025 45.5184 26.1416 45.3204 26.3352 45.0815C26.5288 44.8427 26.6731 44.5677 26.7595 44.2727L30.0624 33.5331H52.9376L56.2404 44.2727C56.3269 44.5677 56.4711 44.8427 56.6647 45.0815C56.8583 45.3204 57.0974 45.5184 57.3682 45.664C57.639 45.8097 57.936 45.9001 58.242 45.93C58.548 45.9599 58.8569 45.9287 59.1507 45.8383C59.4446 45.7478 59.7175 45.5998 59.9537 45.403C60.1899 45.2061 60.3846 44.9643 60.5266 44.6916C60.6685 44.4188 60.7549 44.1206 60.7806 43.8142C60.8063 43.5078 60.7709 43.1994 60.6764 42.9068L56.8689 30.5294C56.7229 30.0552 56.4287 29.6402 56.0295 29.3455C55.6303 29.0507 55.1472 28.8916 54.6509 28.8916H28.349Z" fill="#29292E"></path><path d="M41.4637 5.65067C40.8487 5.66028 40.2627 5.91359 39.8344 6.35497C39.406 6.79634 39.1704 7.38969 39.1792 8.00467V15.7405C39.1748 16.0481 39.2317 16.3534 39.3463 16.6388C39.461 16.9242 39.6313 17.1839 39.8472 17.4029C40.0631 17.6219 40.3204 17.7958 40.6042 17.9145C40.8879 18.0332 41.1924 18.0944 41.5 18.0944C41.8075 18.0944 42.112 18.0332 42.3957 17.9145C42.6795 17.7958 42.9368 17.6219 43.1527 17.4029C43.3686 17.1839 43.5389 16.9242 43.6536 16.6388C43.7682 16.3534 43.8251 16.0481 43.8207 15.7405V8.00467C43.8252 7.69405 43.7672 7.3857 43.6503 7.09789C43.5334 6.81008 43.3599 6.54866 43.1401 6.32914C42.9203 6.10962 42.6587 5.93645 42.3707 5.81991C42.0827 5.70337 41.7743 5.64582 41.4637 5.65067Z" fill="#FF0000"></path><path d="M63.378 14.6978C62.9363 14.2698 62.3428 14.0345 61.7278 14.0437C61.1129 14.0529 60.5267 14.3059 60.0981 14.747L54.628 20.2171C54.4074 20.4314 54.2317 20.6875 54.111 20.9704C53.9903 21.2533 53.927 21.5573 53.9249 21.8649C53.9227 22.1724 53.9817 22.4773 54.0984 22.7619C54.215 23.0465 54.3871 23.305 54.6046 23.5225C54.8221 23.7399 55.0806 23.912 55.3652 24.0287C55.6497 24.1454 55.9547 24.2044 56.2622 24.2022C56.5698 24.2 56.8738 24.1368 57.1567 24.0161C57.4396 23.8954 57.6956 23.7196 57.91 23.4991L63.3801 18.029C63.6029 17.8125 63.78 17.5535 63.9008 17.2673C64.0217 16.9812 64.0838 16.6736 64.0836 16.363C64.0834 16.0523 64.0209 15.7449 63.8996 15.4588C63.7784 15.1728 63.601 14.914 63.378 14.6978Z" fill="#FF0000"></path><path d="M19.6222 14.6978C20.0638 14.2698 20.6573 14.0345 21.2723 14.0437C21.8873 14.0529 22.4734 14.3059 22.9021 14.747L28.3721 20.2171C28.5927 20.4314 28.7684 20.6875 28.8891 20.9704C29.0098 21.2533 29.0731 21.5573 29.0753 21.8649C29.0774 22.1724 29.0185 22.4773 28.9018 22.7619C28.7851 23.0465 28.613 23.305 28.3955 23.5225C28.178 23.7399 27.9195 23.912 27.6349 24.0287C27.3504 24.1454 27.0455 24.2044 26.7379 24.2022C26.4304 24.2 26.1263 24.1368 25.8434 24.0161C25.5606 23.8954 25.3045 23.7196 25.0901 23.4991L19.62 18.029C19.3972 17.8125 19.2202 17.5535 19.0993 17.2673C18.9785 16.9812 18.9163 16.6736 18.9165 16.363C18.9167 16.0523 18.9793 15.7449 19.1005 15.4588C19.2217 15.1728 19.3991 14.914 19.6222 14.6978Z" fill="#FF0000"></path></g><defs><clipPath id="clip0_987_17616"><rect width="82" height="82" fill="white" transform="translate(0.5)"></rect></clipPath></defs></svg>