<svg xmlns="http://www.w3.org/2000/svg" width="77" height="76" viewBox="0 0 77 76" fill="none"><path d="M38.4978 9.18311C37.2799 9.18311 36.2925 10.1705 36.2925 11.3884C36.2925 12.6063 37.2799 13.5937 38.4978 13.5937C45.7949 13.5937 51.7316 19.5294 51.7316 26.8253C51.7316 28.0432 52.719 29.0306 53.9369 29.0306C55.1548 29.0306 56.1422 28.0432 56.1422 26.8253C56.1422 17.0974 48.227 9.18311 38.4978 9.18311Z" fill="#0C7A07"></path><path d="M32.8155 0.955981C22.8521 3.03791 14.7734 11.0392 12.6477 21.0646C10.8527 29.5302 13.0646 38.0293 18.7162 44.3827C21.4788 47.4882 23.0631 51.5875 23.0631 55.641V60.0515C23.0631 62.986 24.9841 65.479 27.6343 66.3424C28.5058 71.4918 32.9752 75.6353 38.5 75.6353C44.0233 75.6353 48.4939 71.4931 49.3657 66.3424C52.0158 65.479 53.9369 62.986 53.9369 60.0514V55.6408C53.9369 51.5794 55.5265 47.5294 58.4125 44.2367C62.6369 39.4175 64.9633 33.2339 64.9633 26.8253C64.9633 10.1292 49.6809 -2.56746 32.8155 0.955981ZM38.5 71.2249C35.6652 71.2249 33.1797 69.2743 32.2618 66.6526H44.738C43.8203 69.2743 41.3348 71.2249 38.5 71.2249ZM49.5264 60.0515C49.5264 61.2675 48.5371 62.2568 47.3211 62.2568H29.6789C28.4629 62.2568 27.4736 61.2675 27.4736 60.0515V57.8462H49.5264V60.0515ZM55.0957 41.3297C52.0201 44.8386 50.1278 49.0698 49.6477 53.4357H27.3528C26.8732 49.0675 24.9858 44.7947 22.0119 41.4513C17.3017 36.1563 15.4612 29.059 16.9624 21.9795C18.7147 13.715 25.4481 7.00138 33.7178 5.27347C47.8351 2.32325 60.5528 12.925 60.5528 26.8253C60.5528 32.1639 58.6148 37.315 55.0957 41.3297Z" fill="#29292E"></path><path d="M7.47911 26.8252H3.06856C1.85066 26.8252 0.863281 27.8126 0.863281 29.0305C0.863281 30.2484 1.85066 31.2357 3.06856 31.2357H7.47911C8.69701 31.2357 9.68439 30.2484 9.68439 29.0305C9.68439 27.8126 8.69701 26.8252 7.47911 26.8252Z" fill="#0C7A07"></path><path d="M8.39261 15.7988L5.27391 12.6801C4.41282 11.8189 3.01644 11.8189 2.1552 12.6801C1.29397 13.5413 1.29397 14.9376 2.1552 15.7988L5.27391 18.9175C6.13499 19.7787 7.53137 19.7789 8.39261 18.9175C9.25384 18.0563 9.25384 16.66 8.39261 15.7988Z" fill="#0C7A07"></path><path d="M8.39261 39.1435C7.53137 38.2823 6.13499 38.2823 5.27391 39.1435L2.1552 42.2622C1.29397 43.1234 1.29397 44.5197 2.1552 45.3809C3.01629 46.2421 4.41267 46.2423 5.27391 45.3809L8.39261 42.2622C9.25384 41.4009 9.25384 40.0047 8.39261 39.1435Z" fill="#0C7A07"></path><path d="M73.9315 26.8252H69.521C68.303 26.8252 67.3157 27.8126 67.3157 29.0305C67.3157 30.2484 68.303 31.2357 69.521 31.2357H73.9315C75.1494 31.2357 76.1368 30.2484 76.1368 29.0305C76.1368 27.8126 75.1494 26.8252 73.9315 26.8252Z" fill="#0C7A07"></path><path d="M74.8448 12.6801C73.9837 11.8189 72.5873 11.8189 71.7261 12.6801L68.6074 15.7988C67.7461 16.66 67.7461 18.0563 68.6074 18.9175C69.4684 19.7786 70.8648 19.7787 71.7261 18.9175L74.8448 15.7988C75.706 14.9376 75.706 13.5413 74.8448 12.6801Z" fill="#0C7A07"></path><path d="M74.8448 42.2622L71.7261 39.1435C70.865 38.2823 69.4686 38.2823 68.6074 39.1435C67.7461 40.0047 67.7461 41.4009 68.6074 42.2622L71.7261 45.3809C72.5871 46.242 73.9835 46.2421 74.8448 45.3809C75.706 44.5197 75.706 43.1234 74.8448 42.2622Z" fill="#0C7A07"></path></svg>