<svg xmlns="http://www.w3.org/2000/svg" width="83" height="82" viewBox="0 0 83 82" fill="none"><path d="M41.5 76.875C48.5954 76.875 55.5315 74.771 61.4311 70.829C67.3307 66.887 71.9289 61.2841 74.6442 54.7288C77.3595 48.1735 78.0699 40.9602 76.6857 34.0012C75.3014 27.0421 71.8847 20.6498 66.8675 15.6326C61.8502 10.6154 55.4579 7.19859 48.4989 5.81434C41.5398 4.4301 34.3265 5.14054 27.7712 7.85584C21.2159 10.5711 15.613 15.1693 11.671 21.0689C7.72903 26.9685 5.625 33.9046 5.625 41C5.63572 50.5114 9.41883 59.6301 16.1444 66.3556C22.8699 73.0812 31.9886 76.8643 41.5 76.875ZM38.9375 10.3799V12.8125C38.9375 13.4921 39.2075 14.1439 39.688 14.6245C40.1686 15.105 40.8204 15.375 41.5 15.375C42.1796 15.375 42.8314 15.105 43.312 14.6245C43.7925 14.1439 44.0625 13.4921 44.0625 12.8125V10.3799C51.2982 10.9937 58.0836 14.1469 63.2184 19.2816C68.3532 24.4164 71.5063 31.2018 72.1201 38.4375H69.6875C69.0079 38.4375 68.3561 38.7075 67.8755 39.1881C67.395 39.6686 67.125 40.3204 67.125 41C67.125 41.6796 67.395 42.3314 67.8755 42.812C68.3561 43.2925 69.0079 43.5625 69.6875 43.5625H72.1201C71.5063 50.7982 68.3532 57.5836 63.2184 62.7184C58.0836 67.8532 51.2982 71.0063 44.0625 71.6201V69.1875C44.0625 68.5079 43.7925 67.8561 43.312 67.3756C42.8314 66.895 42.1796 66.625 41.5 66.625C40.8204 66.625 40.1686 66.895 39.688 67.3756C39.2075 67.8561 38.9375 68.5079 38.9375 69.1875V71.6201C31.7018 71.0063 24.9164 67.8532 19.7816 62.7184C14.6468 57.5836 11.4937 50.7982 10.8799 43.5625H13.3125C13.9921 43.5625 14.6439 43.2925 15.1245 42.812C15.605 42.3314 15.875 41.6796 15.875 41C15.875 40.3204 15.605 39.6686 15.1245 39.1881C14.6439 38.7075 13.9921 38.4375 13.3125 38.4375H10.8799C11.4937 31.2018 14.6468 24.4164 19.7816 19.2816C24.9164 14.1469 31.7018 10.9937 38.9375 10.3799Z" fill="#29292E"></path><path d="M27.2711 58.667L47.7711 48.417C48.2669 48.169 48.669 47.7669 48.9171 47.2711L59.1671 26.7711C59.396 26.2899 59.4703 25.7496 59.3798 25.2244C59.2892 24.6993 59.0383 24.215 58.6615 23.8382C58.2847 23.4614 57.8005 23.2105 57.2754 23.12C56.7502 23.0295 56.2099 23.1038 55.7287 23.3327L35.2287 33.5827C34.7329 33.8308 34.3308 34.2328 34.0828 34.7287L23.8328 55.2287C23.5971 55.7098 23.5177 56.2526 23.6057 56.7811C23.6937 57.3096 23.9447 57.7974 24.3235 58.1763C24.7024 58.5551 25.1902 58.8061 25.7187 58.8941C26.2472 58.9821 26.7899 58.9027 27.2711 58.667ZM37.0765 40.2001L42.2997 45.4233L31.8547 50.6451L37.0765 40.2001ZM45.9233 41.7996L40.7001 36.5765L51.1452 31.3546L45.9233 41.7996Z" fill="#0C7A07"></path></svg>