<svg width="16" height="15" viewBox="0 0 16 15" fill="none" xmlns="http://www.w3.org/2000/svg">
<path d="M3.33325 9.02391C2.09901 9.56839 1.33325 10.3271 1.33325 11.1663C1.33325 12.8232 4.31802 14.1663 7.99992 14.1663C11.6818 14.1663 14.6666 12.8232 14.6666 11.1663C14.6666 10.3271 13.9008 9.56839 12.6666 9.02391M11.9999 4.83301C11.9999 7.54215 8.99992 8.83301 7.99992 10.833C6.99992 8.83301 3.99992 7.54215 3.99992 4.83301C3.99992 2.62387 5.79078 0.833008 7.99992 0.833008C10.2091 0.833008 11.9999 2.62387 11.9999 4.83301ZM8.66659 4.83301C8.66659 5.2012 8.36811 5.49967 7.99992 5.49967C7.63173 5.49967 7.33325 5.2012 7.33325 4.83301C7.33325 4.46482 7.63173 4.16634 7.99992 4.16634C8.36811 4.16634 8.66659 4.46482 8.66659 4.83301Z" stroke="black" stroke-linecap="round" stroke-linejoin="round"/>
</svg>
