<svg width="16" height="13" viewBox="0 0 16 13" fill="none" xmlns="http://www.w3.org/2000/svg">
<path d="M1.33325 3.16699L6.77653 6.97729C7.21731 7.28583 7.4377 7.44011 7.67743 7.49986C7.88918 7.55265 8.11066 7.55265 8.32241 7.49986C8.56213 7.44011 8.78252 7.28583 9.2233 6.97729L14.6666 3.16699M4.53325 11.8337H11.4666C12.5867 11.8337 13.1467 11.8337 13.5746 11.6157C13.9509 11.4239 14.2569 11.118 14.4486 10.7416C14.6666 10.3138 14.6666 9.75376 14.6666 8.63366V4.36699C14.6666 3.24689 14.6666 2.68683 14.4486 2.25901C14.2569 1.88269 13.9509 1.57673 13.5746 1.38498C13.1467 1.16699 12.5867 1.16699 11.4666 1.16699H4.53325C3.41315 1.16699 2.85309 1.16699 2.42527 1.38498C2.04895 1.57673 1.74299 1.88269 1.55124 2.25901C1.33325 2.68683 1.33325 3.24689 1.33325 4.36699V8.63366C1.33325 9.75376 1.33325 10.3138 1.55124 10.7416C1.74299 11.118 2.04895 11.4239 2.42527 11.6157C2.85309 11.8337 3.41315 11.8337 4.53325 11.8337Z" stroke="#29292E" stroke-linecap="round" stroke-linejoin="round"/>
</svg>
