<svg width="14" height="15" viewBox="0 0 14 15" fill="none" xmlns="http://www.w3.org/2000/svg">
<path d="M4.58685 5.40223C5.05085 6.36865 5.68337 7.27441 6.48443 8.07546C7.28548 8.87651 8.19124 9.50904 9.15765 9.97304C9.24078 10.0129 9.28234 10.0329 9.33494 10.0482C9.52184 10.1027 9.75135 10.0636 9.90963 9.95024C9.95417 9.91835 9.99228 9.88024 10.0685 9.80404C10.3016 9.57097 10.4181 9.45443 10.5353 9.37824C10.9772 9.09091 11.5469 9.09091 11.9889 9.37824C12.106 9.45443 12.2226 9.57097 12.4556 9.80404L12.5856 9.93395C12.9398 10.2882 13.117 10.4654 13.2132 10.6556C13.4046 11.034 13.4046 11.4809 13.2132 11.8592C13.117 12.0495 12.9399 12.2266 12.5856 12.5809L12.4805 12.686C12.1274 13.0391 11.9508 13.2156 11.7108 13.3505C11.4445 13.5001 11.0308 13.6077 10.7253 13.6068C10.45 13.6059 10.2619 13.5525 9.8856 13.4457C7.86333 12.8718 5.95509 11.7888 4.36311 10.1968C2.77112 8.60479 1.68814 6.69655 1.11416 4.67429C1.00735 4.29799 0.953949 4.10984 0.953131 3.83455C0.952222 3.52906 1.0598 3.1154 1.20941 2.84907C1.34424 2.60904 1.52078 2.4325 1.87386 2.07942L1.97895 1.97433C2.33325 1.62004 2.5104 1.44289 2.70065 1.34666C3.07903 1.15528 3.52587 1.15528 3.90424 1.34666C4.0945 1.44289 4.27164 1.62004 4.62594 1.97433L4.75585 2.10424C4.98892 2.33732 5.10546 2.45385 5.18165 2.57104C5.46898 3.01296 5.46898 3.58268 5.18165 4.02461C5.10546 4.1418 4.98892 4.25833 4.75585 4.4914C4.67964 4.56761 4.64154 4.60571 4.60965 4.65026C4.4963 4.80854 4.45717 5.03805 4.51165 5.22495C4.52698 5.27754 4.54694 5.31911 4.58685 5.40223Z" stroke="#29292E" stroke-linecap="round" stroke-linejoin="round"/>
</svg>
