<svg width="18" height="18" viewBox="0 0 18 18" fill="none" xmlns="http://www.w3.org/2000/svg">
<path fill-rule="evenodd" clip-rule="evenodd" d="M3 0C1.34315 0 0 1.34315 0 3V15C0 16.6569 1.34315 18 3 18H15C16.6569 18 18 16.6569 18 15V3C18 1.34315 16.6569 0 15 0H3ZM9.32714 7.7719C9.13079 7.81143 9.01111 7.95499 8.89619 8.10839C8.29772 7.56895 7.63695 7.53434 6.98587 7.93513C6.20065 8.41026 5.9086 9.18225 6.00915 10.0879C6.10486 10.9243 6.45437 11.6122 7.30674 11.8992C7.83814 12.0774 8.3313 12.013 8.767 11.6468C8.88192 11.5528 8.91541 11.5725 8.99683 11.6765C9.15485 11.8893 9.42778 11.9635 9.66713 11.8695C9.90172 11.7953 10.0645 11.5676 10.0645 11.3103C10.0741 10.3206 10.0789 9.33082 10.0645 8.34103C10.0596 7.94515 9.70538 7.69274 9.32714 7.7719ZM7.40235 10.5135C7.27783 10.3403 7.21085 10.1324 7.20125 9.91471C7.19649 9.21696 7.56512 8.7963 8.09186 8.83092C8.31685 8.83593 8.52756 8.9497 8.6616 9.14272C8.92968 9.51883 8.92968 10.1374 8.6616 10.5135C8.61375 10.5778 8.56105 10.6323 8.50359 10.6769C8.15408 10.9441 7.66092 10.8699 7.40235 10.5135ZM14.1341 7.68773C12.985 7.72235 12.1758 8.67251 12.2142 9.9444C12.195 11.1816 13.1861 12.1169 14.4358 11.9883C15.5801 11.8695 16.3222 10.9837 16.2839 9.73162C16.2455 8.49443 15.355 7.64811 14.1341 7.68773ZM13.6217 10.5185C13.4781 10.3156 13.4063 10.073 13.4159 9.82562C13.4159 9.20703 13.7797 8.80122 14.2969 8.83092C14.5219 8.83593 14.7326 8.95471 14.8666 9.14272C15.1395 9.51883 15.1395 10.1523 14.8619 10.5284C14.8188 10.5778 14.7757 10.6273 14.723 10.6669C14.3782 10.944 13.8851 10.8748 13.6217 10.5185ZM11.7939 9.72661C11.7934 9.47092 11.7928 9.21523 11.7928 8.95953C11.7928 8.70115 11.7934 8.44222 11.7939 8.1831V8.18254V8.18198C11.795 7.66728 11.796 7.15185 11.7929 6.63855C11.7929 6.24268 11.5487 5.99528 11.1849 6.00019C10.8305 6.00019 10.5959 6.24769 10.5911 6.62872C10.588 6.78353 10.589 6.9362 10.5901 7.08958V7.0896V7.08971C10.5906 7.16669 10.5911 7.24385 10.5911 7.32155V11.2558C10.5911 11.5675 10.7731 11.8299 11.0125 11.8942C11.0699 11.909 11.1322 11.914 11.1896 11.914C11.5295 11.9041 11.7976 11.6121 11.7928 11.2607C11.796 10.7494 11.795 10.238 11.7939 9.72661ZM4.06234 10.7104H4.06173C3.82585 10.7109 3.58652 10.7115 3.34226 10.7115C3.41893 10.6026 3.46678 10.5382 3.51948 10.4739C4.14668 9.65738 4.77388 8.83583 5.40108 8.00937C5.58306 7.76689 5.76496 7.52441 5.87987 7.2423C6.00915 6.91565 5.87027 6.60394 5.54473 6.49008C5.39632 6.45045 5.24791 6.43069 5.09466 6.43561C4.24239 6.43069 3.38544 6.43069 2.53316 6.43561C2.41349 6.43561 2.29381 6.45045 2.17889 6.48015C1.997 6.52469 1.85335 6.67809 1.81026 6.86619C1.74804 7.14329 1.91557 7.42539 2.1885 7.4897C2.30342 7.51448 2.42309 7.52933 2.54277 7.52933C2.80133 7.53179 3.06107 7.53179 3.3208 7.53179C3.58053 7.53179 3.84026 7.53179 4.09883 7.53425C4.11395 7.53554 4.12974 7.53375 4.14568 7.53194C4.19026 7.52688 4.23595 7.5217 4.2712 7.58371C4.22811 7.63817 4.18502 7.69756 4.14193 7.75694L4.14192 7.75696C3.3998 8.72698 2.65769 9.70192 1.92033 10.6718C1.73835 10.9144 1.64264 11.1816 1.77668 11.4785C1.91072 11.7755 2.18365 11.8349 2.46134 11.8497C2.6218 11.8603 2.77988 11.8583 2.93897 11.8563C3.00296 11.8555 3.0671 11.8547 3.13163 11.8547C3.32659 11.8547 3.52124 11.855 3.71574 11.8553H3.7158H3.71587C4.29519 11.8562 4.87315 11.8572 5.45378 11.8497C5.86551 11.8447 6.08574 11.5825 6.04264 11.1915C6.00431 10.8797 5.79844 10.7164 5.4202 10.7115C4.97335 10.7082 4.52445 10.7093 4.06234 10.7104Z" fill="#29292E"/>
</svg>
