<svg xmlns="http://www.w3.org/2000/svg" id="Layer_2" viewBox="0 0 835.04 219.56"><defs><style>.cls-1,.cls-2{fill:#ed1c24;}.cls-3{fill:#231f20;}.cls-2,.cls-4{fill-rule:evenodd;}.cls-4{fill:#fcb017;}</style></defs><g id="Layer_1-2"><g><g><g><path class="cls-1" d="M745.83,68.2c-1.16,2.29-1.72,5.28-1.72,8.92v55.12h0v2.73c0,2.79-2.21,4.97-5.14,4.97-4.57,0-8.31,.1-12.88,.1-2.67,0-4.92-2.52-4.92-5.03v-11.24h0v-47.31c0-7.88,1.95-14.63,5.88-20.25,.79-1.14,1.62-2.19,2.53-3.17,.88-1,1.89-1.97,2.94-2.86h0c7.52-6.46,18.18-9.67,32.01-9.67,3.18,0,6.22,.22,9.1,.62h.03c2.87,.41,5.63,1.05,8.26,1.88,2.62,.84,5.03,1.85,7.24,3.04h.03c2.24,1.19,4.28,2.58,6.14,4.16,2.71,2.27,4.94,4.91,6.68,7.88,.34,.58,.66,1.17,.97,1.77,.3,.61,.58,1.22,.84,1.84h.02c.96,2.21,1.65,4.56,2.13,7.05,.43,2.47,.68,5.05,.68,7.73v55.79h0v2.73c0,2.79-2.21,4.97-5.12,4.97-4.59,0-8.3,.1-12.89,.1-2.68,0-4.91-2.52-4.91-5.03v-11.24h0v-46.65c0-1.9-.16-3.61-.45-5.09-.3-1.47-.75-2.75-1.31-3.89-.58-1.2-1.26-2.24-2-3.17-.72-.88-1.54-1.65-2.41-2.3-1.3-.94-2.71-1.7-4.3-2.25-.44-.15-.73-.28-.93-.29h0c-.34-.1-.63-.2-.97-.27h0c-1.79-.4-3.57-.67-5.29-.76-.41-.02-.75-.02-1.02-.02h-1.33c-1.71-.03-3.42,.07-5.15,.38-.29,.04-.63,.11-1.01,.19h-.03c-.22,.03-.56,.11-1.01,.23h0l-.09,.03c-1.62,.39-3.17,1.01-4.58,1.84-.25,.16-.53,.32-.83,.49-.34,.24-.61,.41-.78,.54l-.05,.05h0v-.02c-.84,.62-1.63,1.37-2.35,2.29-.77,.89-1.43,1.93-2.03,3.09Z"></path><path class="cls-1" d="M686.3,101.56h-39.64c.03,9.31,.11,18.61,.11,27.95v.71h0v4.86c0,2.79-2.22,4.97-5.16,4.97-4.61,0-8.34,.11-12.95,.11-2.68,0-4.94-2.53-4.94-5.04v-4.9h-.02c.11-9.4,.04-18.74,.04-28.13h-.02v-25.64c0-7.86,1.97-14.63,5.87-20.25,.8-1.14,1.64-2.19,2.53-3.17,.89-1,1.9-1.97,2.96-2.86l.03-.02h0c7.49-6.43,18.15-9.65,31.99-9.65,4.6,0,8.89,.42,12.85,1.28,.67,.15,1.44,.33,2.3,.57,.77,.19,1.53,.41,2.22,.65h.03c2.61,.84,5.04,1.85,7.22,3.04h.03c2.23,1.2,4.28,2.58,6.16,4.16,2.7,2.27,4.92,4.91,6.67,7.88,.35,.58,.67,1.15,.97,1.77,.3,.61,.58,1.22,.85,1.84h0c.93,2.21,1.66,4.56,2.12,7.05,.46,2.47,.7,5.03,.7,7.73h-.02l.11,53.77h0v4.86c0,2.79-2.21,4.97-5.13,4.97-4.61,0-8.36,.11-12.94,.11-2.69,0-4.95-2.53-4.95-5.04v-4.9h0v-28.66h0Zm-39.19-30.11c-.28,1.48-.45,3.17-.45,5.07v9.89h39.64v-9.89c0-1.9-.15-3.61-.44-5.08-.3-1.48-.74-2.75-1.28-3.9-.59-1.15-1.25-2.18-1.97-3.09-.36-.41-.71-.81-1.06-1.17-.21-.21-.45-.41-.67-.62-.31-.26-.54-.45-.71-.57h0c-1.3-.96-2.72-1.72-4.31-2.26-.44-.17-.75-.26-.93-.33h0c-.32-.07-.66-.15-.97-.23v-.02c-1.27-.3-2.51-.5-3.75-.62-1.26-.14-2.47-.18-3.64-.15h-.26c-1.15-.03-2.39,0-3.63,.15-1.26,.15-2.48,.36-3.64,.65-1.1,.28-2.19,.66-3.28,1.19-1.06,.49-2.04,1.07-2.93,1.72-.86,.63-1.67,1.39-2.42,2.3-.74,.92-1.41,1.94-1.98,3.09-.58,1.14-1.01,2.42-1.31,3.85Z"></path><path class="cls-2" d="M655.01,32.14h-16.18l17.43-21.23c.94-1.15,1.88-1.51,3.34-1.51h13.79c1.81,0,2.85,.6,3.96,2l16.86,20.95h-14.48c-1.79,0-2.75-.29-4.01-1.71l-9.45-10.68c-2.47,3.4-4.9,6.82-7.35,10.24-1.07,1.49-2.03,1.93-3.91,1.93Z"></path><path class="cls-1" d="M434.01,133.57V50.81h0v-5.42c0-2.5,2.24-5.02,4.93-5.02,4.57,0,8.29,.1,12.86,.1,2.92,0,5.16,2.18,5.16,4.99v11.18h-.02v29.76h33.31v-29.76h0v-11.25c0-2.5,2.23-5.02,4.91-5.02,4.58,0,8.3,.1,12.86,.1,2.95,0,5.16,2.18,5.16,4.99v89.96h-.03c-.11,2.7-2.26,4.78-5.13,4.78-4.56,0-8.27,.08-12.86,.08-2.69,0-4.91-2.52-4.91-5.02v-11.26h0v-22.69h-33.33v22.69h.02v11.21c0,2.78-2.22,4.98-5.14,4.98-4.57,0-8.29,.08-12.86,.08-2.69,0-4.93-2.52-4.93-5.02v-1.69Z"></path><path class="cls-1" d="M588.71,106.88c.3-1.48,.44-3.15,.44-5.06V56.88h0v-11.24c0-2.5,2.26-5.02,4.9-5.02,4.59,0,8.32,.09,12.92,.09,2.9,0,5.1,2.18,5.1,4.98v58.5c0,7.89-1.94,14.63-5.85,20.27-.8,1.13-1.64,2.19-2.54,3.17-.89,.99-1.89,1.97-2.97,2.87h0c-7.5,6.44-18.16,9.66-31.98,9.66-3.23,0-6.3-.22-9.18-.63-2.94-.39-5.71-1.04-8.3-1.88-2.57-.82-4.94-1.85-7.19-3.05-2.27-1.21-4.31-2.61-6.16-4.14-2.7-2.28-4.93-4.9-6.68-7.89-.32-.57-.65-1.17-.93-1.77-.32-.59-.62-1.21-.87-1.84h0c-.93-2.21-1.65-4.56-2.12-7.05-.47-2.47-.72-5.05-.72-7.73V51.53h0v-5.89c0-2.5,2.26-5.02,4.92-5.02,4.59,0,8.3,.09,12.9,.09,2.91,0,5.12,2.18,5.12,4.98v11.19h0v44.94c0,3.65,.58,6.65,1.74,9,.83,1.66,1.84,3.09,3.03,4.23,.2,.24,.45,.41,.67,.64,.29,.24,.52,.45,.7,.54v.02c1.27,.95,2.75,1.7,4.3,2.25,.45,.16,.75,.28,.94,.32v-.03c.32,.11,.64,.18,.97,.26h.03c1.25,.31,2.51,.52,3.7,.65,1.27,.13,2.49,.18,3.69,.13h.23c1.16,.05,2.37-.02,3.61-.15,1.27-.14,2.49-.37,3.65-.65,1.64-.43,3.17-1.04,4.58-1.85,.27-.16,.57-.32,.83-.49,.35-.26,.6-.42,.81-.55l.02-.05v0c.86-.63,1.64-1.38,2.4-2.26,.74-.91,1.42-1.95,1.99-3.1,.56-1.15,1.01-2.42,1.29-3.86Z"></path><path class="cls-1" d="M370.29,102.94h-39.62c.02,9.32,.1,18.65,.1,27.96v.69h0v4.88c0,2.79-2.23,4.98-5.15,4.98-4.61,0-8.34,.08-12.94,.08-2.7,0-4.95-2.5-4.95-5.02v-4.92h-.03c.13-9.39,.06-18.73,.06-28.11h-.02v-25.63c0-7.89,1.95-14.66,5.89-20.25,.76-1.15,1.62-2.21,2.51-3.18,.89-.98,1.89-1.96,2.96-2.88h.02c7.5-6.41,18.17-9.66,31.97-9.66,4.6,0,8.89,.42,12.88,1.27,.65,.15,1.43,.34,2.28,.58,.79,.2,1.52,.41,2.22,.66h.05c2.59,.81,5.02,1.84,7.23,3.02h.02c2.23,1.2,4.28,2.58,6.16,4.18,2.68,2.27,4.91,4.88,6.65,7.87,.36,.57,.67,1.16,.98,1.75,.3,.61,.58,1.23,.85,1.84h0c.96,2.23,1.65,4.56,2.13,7.06,.46,2.45,.68,5.04,.68,7.73h0l.13,53.74h-.03v4.88c0,2.79-2.21,4.98-5.14,4.98-4.61,0-8.33,.08-12.94,.08-2.68,0-4.94-2.5-4.94-5.02v-4.92h-.02v-28.65h0Zm-39.16-30.11c-.32,1.49-.46,3.18-.46,5.07v9.91h39.62v-9.91c0-1.88-.15-3.57-.45-5.08-.28-1.46-.71-2.75-1.3-3.89-.55-1.15-1.21-2.18-1.93-3.09-.33-.41-.7-.81-1.08-1.17-.21-.21-.44-.41-.66-.62-.31-.24-.54-.45-.71-.58h0c-1.28-.94-2.73-1.7-4.33-2.26-.44-.15-.74-.24-.92-.31l-.02,.02c-.3-.1-.63-.19-.95-.26h0c-1.28-.29-2.53-.52-3.74-.63-1.25-.11-2.49-.18-3.67-.15h-.24c-1.15-.03-2.36,.04-3.62,.15-1.27,.15-2.47,.37-3.65,.67-1.1,.28-2.18,.67-3.24,1.15-1.1,.51-2.09,1.1-2.97,1.75-.85,.63-1.66,1.39-2.4,2.3-.76,.93-1.43,1.93-2.01,3.09-.57,1.15-1,2.43-1.28,3.84Z"></path><path class="cls-1" d="M291.15,94.55c3.69,4.23,5.53,9.66,5.53,16.22,0,3.74-.48,7.1-1.43,10.12-.17,.52-.37,1.1-.63,1.78-.28,.67-.51,1.26-.75,1.71h-.02v.02h.02c-.94,1.98-2.09,3.79-3.39,5.42-1.36,1.63-2.87,3.1-4.61,4.39-1.63,1.25-3.48,2.34-5.51,3.31-1.96,.91-4.07,1.67-6.31,2.27-4.43,1.17-9.15,1.74-14.25,1.74h-28.8c-4.21,0-6.98-3.05-6.98-6.82V46.44c0-2.42,2.19-4.56,4.86-4.56h26.47c5.69,0,10.79,.56,15.27,1.66,4.65,1.15,8.63,2.87,11.96,5.17,2.84,1.98,5.13,4.3,6.83,6.98,.34,.54,.67,1.07,.93,1.57,1.68,3.29,2.53,7.01,2.53,11.17h.02v.02c0,2.54-.38,4.97-1.13,7.29-.75,2.34-1.86,4.53-3.34,6.59-1.59,2.19-3.52,4.13-5.78,5.8,1.82,.91,3.48,1.95,4.99,3.12,.64,.5,1.24,1.02,1.83,1.58,.61,.57,1.15,1.14,1.66,1.73h0Zm-30.04,2.77v.02c-3.69-.75-8.21-1.12-13.58-1.12-.28,0-.53,.02-.76,.02v16.52h.04c0,2.31,0,4.04,.02,5.15,.03,1.49,.07,2.86,.14,4.16,.09,1.49,.31,2.76,.66,3.79,.07,.22,.13,.4,.19,.51,.07,.18,.15,.29,.19,.42h.02l.02,.03c.2,.39,.45,.73,.76,.99,.28,.26,.64,.47,1.06,.63h0c.54,.23,1.23,.41,2.1,.52,.9,.15,2.01,.18,3.37,.19,2.53-.23,4.81-.57,6.87-1.06,.44-.11,.83-.2,1.15-.28,.43-.12,.77-.22,1.02-.29h0l.02-.02h.06c1.14-.36,2.18-.81,3.14-1.35h0c.46-.24,.89-.5,1.28-.8,.34-.25,.72-.55,1.1-.89h0c.67-.62,1.27-1.33,1.75-2.11,.53-.83,.97-1.75,1.3-2.75,.38-1.11,.69-2.31,.92-3.65,.22-1.33,.38-2.74,.49-4.32h-.02c0-1.9-.24-3.61-.69-5.12-.09-.33-.2-.62-.29-.85-.06-.15-.15-.41-.34-.81v-.05h0c-.58-1.23-1.41-2.35-2.53-3.35-.19-.18-.41-.38-.67-.56-.24-.21-.49-.38-.76-.58h-.02c-1.4-.94-3.16-1.71-5.24-2.34-.33-.08-.77-.2-1.35-.34-.38-.1-.87-.2-1.41-.31l-.03-.02h0Zm-14.28-32.13c-.02,1.17-.02,3.01-.02,5.47v12.31h.18c3.6,0,6.73-.15,9.36-.46,.43-.06,.93-.12,1.5-.22,.57-.07,1.02-.15,1.4-.21h0l.02-.02h.02c2.2-.41,4.09-.97,5.68-1.71,.24-.12,.52-.25,.82-.41,.28-.15,.55-.3,.74-.42h0c1.6-1.02,2.76-2.32,3.46-3.91,.81-1.76,1.2-3.94,1.2-6.55,0-3.47-.69-6.1-2.06-7.91-.24-.3-.5-.6-.79-.88-.28-.26-.57-.5-.9-.75h0c-1.1-.73-2.57-1.35-4.4-1.82-.44-.11-.83-.21-1.2-.27-2.66-.56-5.88-.83-9.7-.83h-.02c-1.97,0-3.42,.15-4.35,.45-.14,.31-.25,.62-.34,.99-.23,.83-.39,1.76-.45,2.81-.06,1.36-.11,2.79-.14,4.34Z"></path></g><g><path class="cls-1" d="M819.52,29.38c3.26,0,6.3,1.27,8.58,3.55,2.28,2.29,3.54,5.34,3.54,8.57s-1.26,6.27-3.54,8.56c-2.28,2.3-5.33,3.56-8.58,3.56-6.65,0-12.11-5.44-12.11-12.12s5.46-12.12,12.11-12.12Zm-15.49,12.12c0,8.54,6.97,15.5,15.49,15.5,4.17,0,8.05-1.62,10.96-4.55,2.94-2.93,4.56-6.83,4.56-10.96s-1.62-8.02-4.56-10.95c-2.91-2.92-6.8-4.55-10.96-4.55-8.53,0-15.49,6.95-15.49,15.49Z"></path><path class="cls-1" d="M814.31,49.07v-14.78h6.29c1.57,0,2.71,.13,3.44,.41,.71,.26,1.28,.72,1.71,1.41,.45,.68,.64,1.45,.64,2.33,0,1.11-.33,2.04-.97,2.74-.65,.72-1.65,1.18-2.92,1.36,.64,.38,1.17,.8,1.6,1.25,.41,.45,.97,1.25,1.7,2.39l1.78,2.89h-3.55l-2.16-3.21c-.76-1.16-1.28-1.88-1.57-2.18-.28-.29-.58-.49-.92-.61-.32-.11-.8-.17-1.49-.17h-.61v6.17h-2.97Zm2.97-8.54h2.21c1.43,0,2.31-.05,2.67-.16,.37-.11,.64-.33,.84-.62,.2-.31,.3-.67,.3-1.12,0-.5-.12-.91-.39-1.2-.25-.31-.64-.5-1.13-.58-.24-.03-.98-.05-2.18-.05h-2.32v3.74Z"></path></g></g><g><path class="cls-4" d="M75.65,56.76c20.38,0,36.91,16.55,36.91,36.93s-16.53,36.9-36.91,36.9-36.92-16.52-36.92-36.9,16.5-36.93,36.92-36.93Z"></path><path class="cls-4" d="M169.97,12.26c38.31,27.89,37.74,94.12-1.36,147.95-39.09,53.82-101.9,74.91-140.25,47.04C4.89,190.24-3.96,158.84,1.61,124.72c-.47,24.1,8.11,45.59,25.69,58.36,33.73,24.53,86.74,6.8,120.74-37.78,20.38-26.68,30.37-62.56,24.04-91.07C164.45,19.83,133.99-3.83,83.15,12.38c30.77-15.84,63.34-17.13,86.82-.12Z"></path><path class="cls-1" d="M97.54,99.46c4.47,24.61-33.69,29.53-42.11,10.43-.67-1.49-1.04-3.05-1.04-4.63,0-5.51,3.87-10.12,9.46-10.12,1.23,0,2.3,.21,3.16,.68,.89,.44,1.49,1.12,1.8,2.03,.54,1.59,1.24,2.78,2.24,3.54,.97,.76,2.05,1.16,3.21,1.16,1.47,0,2.75-.53,3.88-1.52,1.09-1.04,1.63-2.24,1.63-3.57,0-1.93-.57-3.35-1.68-4.3-.96-.79-2.24-1.15-3.83-1.15h-3.82c-.68,0-1.09-.06-1.28-.21-.22-.17-.36-.56-.36-1.16v-4.36c0-.63,.11-1.02,.21-1.14,.17-.18,.67-.27,1.42-.27h.84c1.2,0,2.11-.1,2.73-.28,.93-.33,1.49-1.03,2.1-1.82,3.56-4.77-2.82-8.75-6.16-5.42-.5,.49-.79,1.32-.93,2.35-.11,1.07-.5,1.84-1.11,2.29-.59,.45-1.27,.84-1.91,1.12-.66,.3-1.35,.44-2.14,.44-1.24,0-2.23-.47-3.09-1.45-.85-.99-1.25-2.16-1.25-3.54,0-1.66,.6-3.44,1.79-5.28,5.81-9,21.59-9.92,28.36-2,3.72,4.34,3.84,11.48-1.86,16.42,5.08,3.04,8.66,5.75,9.74,11.74Z"></path><path class="cls-4" d="M84.1,178.64c23.83-7.28,37.36-35.54,35.34-68.45-1.97,19.76-12.35,35.93-28.49,40.95-23.88,7.4-51.3-12.36-61.3-44.21-9.94-31.79,1.33-63.61,25.19-71.03,13.72-4.25,28.64,.45,40.73,11.3-16.55-20.66-39.06-31.1-59.27-24.9C6.27,31.49-7.37,73.98,5.81,117.13c13.23,43.18,48.28,70.73,78.29,61.51Z"></path><path class="cls-1" d="M155.48,115.36c0,.94-.97,1.4-2.92,1.4h-13.75c-.85,0-1.4-.08-1.66-.25-.26-.17-.41-.49-.41-.92v-11.65c0-.52,.58-1.05,1.75-1.59,1.16-.52,1.75-1.21,1.75-2.03,0-.74-.3-1.32-.93-1.75-.59-.44-1.36-.66-2.27-.66-1.02,0-2.44,.22-3.13,.66-.69,.43-2.07,1.09-2.07,1.96v15.09c0,.3-.16,.55-.48,.8-.28,.24-.67,.34-1.09,.34h-13.37c-.45,0-.85-.21-1.12-.68-.09-.15-.2-.39-.36-.72v-31.54c0-1.04,.15-1.69,.48-1.98,.33-.29,.93-.41,1.8-.41h11.71c.73,0,1.32,.22,1.76,.71,.45,.48,.66,1.04,.66,1.69v9.09h4.91v-10.36c0-.45,.19-.76,.54-.91,.35-.15,.87-.22,1.53-.22h13.75c1.95,0,2.92,.41,2.92,1.31v32.63Z"></path></g><g><path class="cls-3" d="M221.5,186.33c1.03,.75,2.37,1.4,4,1.94,.84,.26,1.64,.47,2.4,.61,.77,.15,1.49,.22,2.17,.22,.87,0,1.6-.09,2.19-.28,.59-.19,1.07-.46,1.45-.83,.38-.37,.61-.71,.69-1.01,.18-.68-.04-1.16-.64-1.45-.51-.28-1.88-.91-4.12-1.89-1.06-.48-1.97-.95-2.76-1.43-.78-.48-1.39-.94-1.81-1.39-.93-.94-1.21-2.12-.84-3.53l.12-.19,.05-.09c.4-1.54,1.28-2.83,2.63-3.89,1.35-1.05,2.96-1.84,4.84-2.36,1.88-.52,3.85-.79,5.9-.79,3.23,0,5.99,.32,8.26,.95l-1.26,4.77c-1.64-1.17-3.67-1.75-6.1-1.75-1.7,0-2.8,.35-3.33,1.04-.16,.23-.27,.45-.33,.67-.15,.56,.05,1.03,.6,1.42,.54,.39,1.22,.72,2.03,.96l2.03,.65c2,.72,3.51,1.62,4.52,2.71,1.01,1.08,1.25,2.63,.72,4.65-.88,2.32-2.68,4.05-5.39,5.18-2.71,1.13-5.89,1.69-9.55,1.69-2.96,0-5.91-.35-8.85-1.06l.35-5.51Z"></path><path class="cls-3" d="M248.84,188.06l6.02-22.86c.21-.8,.28-1.5,.22-2.1-.04-.63-.37-1.22-.99-1.77l.02-.09h7.26c.34,0,.66,0,.96-.03,.3-.02,.56-.05,.8-.09,.62-.1,1.26-.32,1.92-.67h.21l-3.02,11.47c.89-.64,1.95-1.13,3.19-1.45,1.24-.32,2.47-.49,3.68-.49,2.72,0,4.75,.61,6.1,1.81,1.35,1.2,1.75,2.86,1.2,4.95l-2.96,11.23c-.55,2.09-.25,3.49,.9,4.18l-.05,.18h-12.98l.05-.18c.85-.49,1.48-1.02,1.91-1.58,.42-.56,.74-1.26,.96-2.11l2.73-10.36c.23-.88,.16-1.63-.23-2.26-.38-.63-1.13-.95-2.24-.95-.96,0-1.78,.29-2.47,.86-.69,.58-1.16,1.33-1.4,2.25l-2.6,9.87c-.25,.95-.37,1.77-.36,2.45,.03,.64,.36,1.25,.98,1.82l-.05,.18h-12.67l.05-.18c.89-.54,1.53-1.13,1.93-1.78,.39-.65,.71-1.41,.94-2.31Z"></path><path class="cls-3" d="M277.32,186.23c.51-1.95,1.55-3.42,3.11-4.4,1.56-.98,3.31-1.69,5.25-2.12l5.57-1.29c1.75-.41,2.73-1,2.93-1.77,.18-.69-.03-1.22-.63-1.58-.61-.36-1.33-.54-2.17-.54-1.91,0-4.23,.49-6.94,1.45l4.02-5.42c1.96-.39,3.92-.58,5.87-.58,3.56,0,6.12,.61,7.67,1.82,1.56,1.21,1.98,3.22,1.24,6.02l-1.63,6.18c-.44,1.67-.43,2.87,.03,3.59,.25,.37,.63,.65,1.14,.84,.51,.19,1.18,.29,2,.29l-3.21,3.99c-.43,.06-.84,.11-1.24,.14-.4,.03-.82,.05-1.27,.05-1.47,0-2.84-.24-4.12-.73-1.27-.48-2.23-1.24-2.88-2.27s-.76-2.32-.35-3.87l1.02-3.88c-2.01,.71-3.39,1.32-4.13,1.81-.74,.5-1.21,1.16-1.43,1.97-.19,.71-.07,1.37,.35,1.97,.42,.6,1.1,.91,2.04,.91l1.1-.19-3.35,4.16c-.58,.06-1.09,.11-1.53,.14-.44,.04-.88,.05-1.32,.05-2.48,0-4.44-.55-5.89-1.65-1.45-1.1-1.87-2.8-1.26-5.1Z"></path><path class="cls-3" d="M307.73,187.87l3.52-13.36c.25-.95,.32-1.7,.19-2.24-.12-.54-.46-1.05-.99-1.54l.03-.09h6.31c1.11,0,1.98-.04,2.6-.12,.55-.09,1.22-.3,2.01-.64h.21l-.9,3.44c.29-.65,.99-1.35,2.11-2.11,1.11-.76,2.54-1.14,4.26-1.14h1.02c.29,0,.63,.03,1,.09l-1.51,5.72c-.92-.18-1.69-.28-2.28-.28-1.35,0-2.63,.25-3.85,.76-.56,.25-1.03,.57-1.4,.96-.38,.39-.63,.84-.77,1.35l-2.24,8.51c-.42,1.6-.62,2.68-.59,3.23,.03,.55,.36,1.16,1.01,1.82l-.02,.09h-12.67l.02-.09c.94-.57,1.59-1.16,1.96-1.79,.37-.62,.7-1.48,.98-2.57Z"></path><path class="cls-3" d="M327.01,187.87l3.49-13.26c.26-1,.33-1.77,.21-2.31-.12-.54-.43-1.06-.93-1.57l.05-.18h6.36c1.06,0,1.91-.04,2.56-.12,.64-.08,1.29-.26,1.93-.55h.21l-4.79,18.17c-.26,1-.35,1.8-.27,2.4,.08,.6,.43,1.16,1.05,1.69l-.05,.18h-12.83l.05-.18c.99-.63,1.66-1.25,2.03-1.85,.36-.6,.68-1.4,.94-2.42Zm11.5-27.31c.86,0,1.61,.2,2.26,.59,.65,.39,1.11,.95,1.38,1.67,.27,.71,.3,1.48,.09,2.3-.23,.86-.66,1.63-1.3,2.31-.64,.68-1.39,1.23-2.24,1.63-.85,.4-1.71,.6-2.58,.6-1.38,0-2.45-.44-3.21-1.34-.75-.89-.97-1.96-.65-3.2,.32-1.23,1.1-2.3,2.32-3.19,1.22-.91,2.53-1.35,3.93-1.35Z"></path><path class="cls-3" d="M342.39,187.18l3.39-12.87c.23-.86,.25-1.54,.07-2.03-.14-.49-.47-1-.98-1.54l.05-.18h6.15c1.03,0,1.86-.04,2.49-.11,.63-.07,1.4-.26,2.3-.56h.1l-.69,2.61c.95-.82,2.03-1.44,3.24-1.87,1.21-.43,2.54-.65,3.99-.65,1.78,0,3.28,.3,4.49,.91,1.21,.61,2.06,1.46,2.53,2.56,.47,1.1,.53,2.32,.17,3.65l-2.79,10.59c-.1,.37-.18,.69-.25,.95-.07,.27-.13,.61-.17,1.03-.04,.42,.02,.82,.18,1.21,.16,.39,.48,.81,.96,1.26l-.05,.18h-12.88l.05-.18c1.01-.57,1.69-1.16,2.05-1.75,.37-.6,.73-1.59,1.09-2.98l2.38-9.02c.19-.74,.21-1.38,.05-1.93-.17-.54-.47-.96-.9-1.25-.44-.29-.94-.42-1.5-.42-.94,0-1.8,.29-2.57,.89-.77,.59-1.3,1.42-1.59,2.5l-2.53,9.59c-.29,1.09-.4,1.94-.33,2.54,.04,.63,.38,1.24,1.03,1.82l-.05,.18h-12.72l.05-.18c.99-.65,1.67-1.26,2.03-1.86,.36-.59,.74-1.63,1.12-3.1Z"></path><path class="cls-3" d="M368.55,196.96c.37-1.4,1.18-2.46,2.43-3.18,.68-.38,1.36-.67,2.03-.86,.67-.19,1.41-.29,2.19-.29,.68,0,1.3,.07,1.84,.21,.54,.14,1.13,.36,1.75,.68-1.3,.18-2.16,.81-2.59,1.86-.17,.65-.02,1.26,.44,1.82,.43,.51,1.15,.81,2.15,.91h1.49c1.84,0,3.36-.3,4.53-.9,1.17-.6,1.89-1.38,2.15-2.35,.31-1.17,.06-2.04-.74-2.63-.81-.58-1.89-.88-3.26-.88h-3.69c-1.35,0-2.29-.23-2.82-.68-.53-.46-.95-1.29-1.27-2.49l-.16-.48-.07-.32c.16-.44,.51-.75,1.04-.95,.29-.12,.67-.26,1.16-.41,.48-.14,1.11-.33,1.89-.54-3.82-1.35-5.27-3.75-4.37-7.2,.45-1.7,1.34-3.18,2.68-4.43,1.34-1.25,2.95-2.2,4.82-2.87,1.88-.67,3.77-1,5.66-1,1.4,0,2.73,.16,3.98,.49l11.27-.3-3.53,4.45h-2.49c1.06,1.01,1.36,2.43,.88,4.24-.38,1.43-1.25,2.69-2.61,3.78-1.36,1.09-2.9,1.93-4.61,2.53-1.71,.6-3.28,.95-4.7,1.07-.68,0-1.21,.02-1.57,.06-.36,.04-.77,.1-1.22,.19-.55,.06-.92,.3-1.13,.69-.11,.4,.2,.63,.92,.69,2.44-.18,4.14-.28,5.1-.28,1.83,0,3.49,.23,4.99,.69,1.49,.46,2.6,1.2,3.33,2.22,.73,1.01,.89,2.26,.5,3.76-.56,2.12-1.8,3.77-3.72,4.94-1.92,1.17-4.05,1.95-6.38,2.33-2.33,.39-4.72,.58-7.14,.58-3.13,0-5.86-.33-8.2-1.01-1.23-.34-2.1-.85-2.6-1.53-.5-.68-.62-1.55-.34-2.6Zm14.59-18.96c-.35,1.32-.3,2.31,.15,2.97,.44,.66,1.26,.99,2.44,.99,.36,0,.7-.07,1.03-.22,.33-.15,.67-.37,1.03-.68,.65-.58,1.09-1.32,1.33-2.21,.3-1.16,.36-2.2,.15-3.13-.2-.93-.87-1.46-2.01-1.6-.74,0-1.52,.29-2.36,.88-.4,.29-.76,.68-1.09,1.15-.33,.48-.57,1.03-.73,1.66l.07,.11-.02,.07Z"></path><path class="cls-3" d="M417.73,181.87c.71-2.71,2-4.95,3.87-6.72,1.87-1.77,4.02-3.07,6.44-3.91,1.26-.43,2.49-.76,3.68-1,1.19-.24,2.38-.36,3.56-.36l2.04,.07,2,.21,2.49,.3-1.43,5.42h-.21c-1.3-1.05-2.95-1.57-4.95-1.57-1.61,0-3.03,.52-4.29,1.56-.63,.53-1.17,1.13-1.62,1.82-.45,.69-.78,1.46-1.01,2.33l-.03,.48c-.67,2.53-.57,4.44,.28,5.72,.85,1.28,2.4,1.92,4.64,1.92,2.53,0,5.06-.74,7.58-2.21h.11l-3.01,5.2c-1.48,.55-2.92,.98-4.32,1.28-1.65,.37-3.21,.55-4.66,.55-1.76,0-3.43-.25-5-.74-1.57-.49-2.9-1.2-3.98-2.12-1.09-.92-1.83-2.08-2.25-3.49-.42-1.4-.39-2.99,.07-4.75Z"></path><path class="cls-3" d="M444.81,180.78c.26-.96,.66-1.9,1.23-2.8,.56-.9,1.26-1.8,2.1-2.71,1.56-1.64,3.47-2.94,5.74-3.88,2.27-.95,4.74-1.42,7.43-1.42,3.11,0,5.54,.58,7.27,1.75,1.74,1.16,2.83,2.66,3.27,4.5,.44,1.84,.4,3.74-.12,5.73-.32,1.2-.81,2.31-1.48,3.32-.67,1.02-1.49,1.97-2.45,2.86-1.82,1.66-3.88,2.88-6.17,3.66-2.29,.79-4.52,1.17-6.67,1.17-2.56,0-4.74-.49-6.53-1.46-1.79-.97-3-2.38-3.64-4.21-.63-1.83-.62-4,.04-6.52Zm8.73,.37c-.55,2.09-.59,3.84-.12,5.25,.46,1.42,1.61,2.12,3.44,2.12,1.51-.13,2.71-.66,3.61-1.56,.89-.91,1.58-2.26,2.05-4.05,1.47-5.59,.6-8.38-2.62-8.38-1.98,0-3.42,.65-4.31,1.96-.89,1.31-1.58,2.86-2.05,4.68Z"></path><path class="cls-3" d="M475.04,188.06l3.42-12.99c.28-1.05,.4-1.89,.37-2.54-.02-.66-.35-1.25-.98-1.79l.05-.18h7.15c1.32,0,2.55-.23,3.69-.67h.2l-.76,2.88c1.94-1.86,4.17-2.79,6.66-2.79,2.74,0,4.73,.9,5.98,2.7,2.56-1.8,5.31-2.7,8.26-2.7,.91,0,1.74,.07,2.51,.21,.76,.14,1.47,.35,2.11,.65,1.25,.57,2.12,1.38,2.62,2.44,.49,1.05,.56,2.27,.19,3.66l-3.14,11.9c-.34,1.31-.03,2.44,.95,3.41l-.02,.09h-12.72l.02-.09c.92-.61,1.56-1.23,1.93-1.86,.37-.62,.68-1.4,.92-2.32l2.52-9.57c.27-1.03,.34-1.89,.2-2.57-.14-.68-.8-1.03-2-1.03-1.93,0-3.21,1.17-3.82,3.51l-2.34,8.88c-.37,1.38-.54,2.38-.52,2.98,.02,.6,.38,1.23,1.08,1.89l-.05,.18h-12.7l.02-.09c.71-.46,1.28-.96,1.74-1.5,.46-.54,.82-1.3,1.07-2.28l2.38-9.02,.2-.76c.16-.6,.26-1.1,.3-1.5,.04-.4,0-.79-.1-1.18-.16-.74-.78-1.1-1.86-1.1-1.97,0-3.21,.98-3.73,2.93l-2.8,10.63c-.42,1.58-.12,2.81,.88,3.69l-.05,.18h-12.72l.05-.18c.94-.63,1.58-1.23,1.93-1.78,.34-.58,.63-1.35,.89-2.31Z"></path><path class="cls-3" d="M519.72,188.06l3.42-12.99c.28-1.05,.4-1.89,.37-2.54-.02-.66-.35-1.25-.98-1.79l.05-.18h7.15c1.32,0,2.55-.23,3.69-.67h.2l-.76,2.88c1.95-1.86,4.17-2.79,6.66-2.79,2.74,0,4.73,.9,5.98,2.7,2.56-1.8,5.31-2.7,8.26-2.7,.91,0,1.74,.07,2.51,.21,.76,.14,1.47,.35,2.11,.65,1.25,.57,2.12,1.38,2.62,2.44,.49,1.05,.56,2.27,.19,3.66l-3.14,11.9c-.34,1.31-.03,2.44,.95,3.41l-.02,.09h-12.72l.02-.09c.92-.61,1.56-1.23,1.93-1.86,.37-.62,.68-1.4,.92-2.32l2.52-9.57c.27-1.03,.34-1.89,.2-2.57-.14-.68-.8-1.03-2-1.03-1.93,0-3.21,1.17-3.82,3.51l-2.34,8.88c-.37,1.38-.54,2.38-.52,2.98,.02,.6,.38,1.23,1.08,1.89l-.05,.18h-12.7l.02-.09c.71-.46,1.28-.96,1.74-1.5,.46-.54,.82-1.3,1.07-2.28l2.38-9.02,.2-.76c.16-.6,.26-1.1,.3-1.5,.04-.4,0-.79-.1-1.18-.16-.74-.78-1.1-1.86-1.1-1.97,0-3.21,.98-3.73,2.93l-2.8,10.63c-.42,1.58-.12,2.81,.88,3.69l-.05,.18h-12.72l.05-.18c.94-.63,1.58-1.23,1.93-1.78,.34-.58,.63-1.35,.89-2.31Z"></path><path class="cls-3" d="M567.36,170.73l.05-.18h7.31c1.54,0,2.77-.22,3.69-.67h.15l-3.74,14.2c-.7,2.65-.05,3.97,1.96,3.97,2.14,0,3.55-1.29,4.23-3.87l2.45-9.29c.24-.89,.33-1.66,.28-2.31-.04-.65-.39-1.26-1.04-1.84l.05-.18h7.26c1.32,0,2.55-.23,3.69-.67h.1l-4.66,17.71c-.33,1.26-.48,2.19-.45,2.77,.07,.53,.43,1.11,1.1,1.78l-.05,.18h-10.87l.66-2.51c-2.27,2.11-4.87,3.16-7.81,3.16-2.12,0-3.79-.45-5.01-1.34-.98-.64-1.55-1.43-1.71-2.37-.16-.94-.08-2.05,.26-3.34l2.78-10.56c.27-1.04,.4-1.94,.39-2.68-.02-.74-.37-1.4-1.06-1.95Z"></path><path class="cls-3" d="M595.73,187.18l3.39-12.87c.23-.86,.25-1.54,.07-2.03-.14-.49-.47-1-.98-1.54l.05-.18h6.15c1.03,0,1.86-.04,2.49-.11,.63-.07,1.4-.26,2.3-.56h.1l-.69,2.61c.95-.82,2.03-1.44,3.24-1.87,1.21-.43,2.54-.65,3.99-.65,1.78,0,3.28,.3,4.49,.91,1.21,.61,2.06,1.46,2.53,2.56,.47,1.1,.53,2.32,.17,3.65l-2.79,10.59c-.1,.37-.18,.69-.25,.95-.07,.27-.13,.61-.17,1.03-.04,.42,.02,.82,.18,1.21,.16,.39,.48,.81,.96,1.26l-.05,.18h-12.88l.05-.18c1.01-.57,1.69-1.16,2.05-1.75,.37-.6,.73-1.59,1.09-2.98l2.38-9.02c.19-.74,.21-1.38,.05-1.93-.17-.54-.47-.96-.9-1.25-.44-.29-.94-.42-1.5-.42-.94,0-1.8,.29-2.57,.89-.77,.59-1.3,1.42-1.59,2.5l-2.53,9.59c-.29,1.09-.4,1.94-.33,2.54,.04,.63,.38,1.24,1.03,1.82l-.05,.18h-12.72l.05-.18c.99-.65,1.67-1.26,2.03-1.86,.36-.59,.74-1.63,1.12-3.1Z"></path><path class="cls-3" d="M626.54,187.87l3.49-13.26c.26-1,.33-1.77,.21-2.31-.12-.54-.43-1.06-.93-1.57l.05-.18h6.36c1.06,0,1.91-.04,2.56-.12,.64-.08,1.29-.26,1.93-.55h.21l-4.79,18.17c-.26,1-.35,1.8-.27,2.4,.08,.6,.43,1.16,1.05,1.69l-.05,.18h-12.83l.05-.18c.99-.63,1.66-1.25,2.03-1.85,.36-.6,.68-1.4,.94-2.42Zm11.5-27.31c.86,0,1.61,.2,2.26,.59,.65,.39,1.11,.95,1.38,1.67,.27,.71,.3,1.48,.09,2.3-.23,.86-.66,1.63-1.3,2.31s-1.39,1.23-2.24,1.63c-.85,.4-1.71,.6-2.58,.6-1.38,0-2.45-.44-3.21-1.34-.75-.89-.97-1.96-.65-3.2,.32-1.23,1.1-2.3,2.32-3.19,1.22-.91,2.53-1.35,3.93-1.35Z"></path><path class="cls-3" d="M641.4,186.33l2.99-11.35h-3.16l.88-3.35c1.59-.14,3.12-.6,4.58-1.37,1.46-.77,2.72-1.74,3.79-2.89,1.07-1.15,1.83-2.35,2.32-3.58h3.56l-1.78,6.76h5.85l-1.53,5.81h-.2c-.44-.6-.78-.98-1.01-1.14-.23-.16-.79-.24-1.68-.24h-2.59l-2.55,9.69c-.32,1.23-.13,2.18,.57,2.86,.7,.68,2.12,1.02,4.26,1.02l-3.43,4.08c-1.79,.19-3.25,.28-4.38,.28-.96,0-2.18-.16-3.67-.48-1.41-.4-2.35-1.09-2.8-2.05-.46-.97-.46-2.31,0-4.03Z"></path><path class="cls-3" d="M657.61,197.29c.24,.06,.68,.09,1.33,.09,2.93,0,5.5-1.85,7.72-5.54-1.06-.7-1.78-1.46-2.15-2.26-.17-.39-.34-.84-.51-1.36-.17-.52-.32-1.09-.45-1.71l-2.59-12.2c-.07-.71-.3-1.41-.69-2.11-.39-.7-.83-1.19-1.32-1.46l.05-.18h11.62l-.07,.27c.02,.31,.06,.63,.11,.95,.05,.32,.09,.58,.11,.76l.57,3.21,.81,4.25,.61,3.41,5.42-8.42c.43-.72,.72-1.37,.86-1.94,.14-.54,.17-.96,.09-1.28-.08-.32-.21-.57-.38-.75l-.32-.28,.05-.18h7.67l-.05,.18-17.28,25.19c-2.73,4.12-7.26,6.18-13.61,6.18h-1.23c-.79,0-1.38-.03-1.77-.09l5.38-4.73Z"></path><path class="cls-3" d="M700.85,186.33l2.99-11.35h-3.16l.88-3.35c1.59-.14,3.12-.6,4.58-1.37,1.46-.77,2.72-1.74,3.79-2.89,1.07-1.15,1.83-2.35,2.32-3.58h3.56l-1.78,6.76h5.85l-1.53,5.81h-.2c-.44-.6-.78-.98-1.01-1.14-.23-.16-.79-.24-1.68-.24h-2.59l-2.55,9.69c-.32,1.23-.13,2.18,.57,2.86,.7,.68,2.12,1.02,4.26,1.02l-3.43,4.08c-1.79,.19-3.25,.28-4.38,.28-.96,0-2.18-.16-3.67-.48-1.41-.4-2.35-1.09-2.8-2.05-.46-.97-.46-2.31,0-4.03Z"></path><path class="cls-3" d="M718.64,187.87l3.52-13.36c.25-.95,.32-1.7,.19-2.24-.12-.54-.45-1.05-.99-1.54l.03-.09h6.31c1.11,0,1.98-.04,2.6-.12,.55-.09,1.22-.3,2.01-.64h.21l-.9,3.44c.29-.65,.99-1.35,2.11-2.11,1.11-.76,2.54-1.14,4.26-1.14h1.02c.29,0,.63,.03,1,.09l-1.51,5.72c-.92-.18-1.69-.28-2.28-.28-1.35,0-2.63,.25-3.85,.76-.56,.25-1.03,.57-1.4,.96-.38,.39-.63,.84-.77,1.35l-2.24,8.51c-.42,1.6-.62,2.68-.59,3.23,.03,.55,.36,1.16,1.01,1.82l-.02,.09h-12.67l.02-.09c.94-.57,1.59-1.16,1.96-1.79,.37-.62,.7-1.48,.98-2.57Z"></path><path class="cls-3" d="M740.74,170.73l.05-.18h7.31c1.54,0,2.77-.22,3.69-.67h.15l-3.74,14.2c-.7,2.65-.04,3.97,1.96,3.97,2.14,0,3.55-1.29,4.23-3.87l2.45-9.29c.24-.89,.33-1.66,.28-2.31-.04-.65-.39-1.26-1.04-1.84l.05-.18h7.26c1.31,0,2.55-.23,3.69-.67h.11l-4.66,17.71c-.33,1.26-.48,2.19-.45,2.77,.07,.53,.43,1.11,1.1,1.78l-.05,.18h-10.87l.66-2.51c-2.27,2.11-4.87,3.16-7.81,3.16-2.12,0-3.79-.45-5.01-1.34-.98-.64-1.55-1.43-1.71-2.37-.16-.94-.08-2.05,.26-3.34l2.78-10.56c.27-1.04,.4-1.94,.39-2.68-.02-.74-.37-1.4-1.06-1.95Z"></path><path class="cls-3" d="M767.38,186.33c1.03,.75,2.37,1.4,4,1.94,.84,.26,1.64,.47,2.4,.61,.77,.15,1.49,.22,2.17,.22,.87,0,1.6-.09,2.19-.28,.59-.19,1.07-.46,1.45-.83,.38-.37,.61-.71,.69-1.01,.18-.68-.04-1.16-.64-1.45-.51-.28-1.88-.91-4.12-1.89-1.06-.48-1.97-.95-2.76-1.43-.78-.48-1.39-.94-1.81-1.39-.93-.94-1.21-2.12-.84-3.53l.12-.19,.05-.09c.4-1.54,1.28-2.83,2.63-3.89,1.35-1.05,2.96-1.84,4.84-2.36,1.88-.52,3.85-.79,5.9-.79,3.23,0,5.99,.32,8.26,.95l-1.26,4.77c-1.64-1.17-3.67-1.75-6.1-1.75-1.7,0-2.8,.35-3.33,1.04-.16,.23-.27,.45-.33,.67-.15,.56,.05,1.03,.6,1.42,.54,.39,1.22,.72,2.03,.96l2.03,.65c2,.72,3.51,1.62,4.52,2.71,1.01,1.08,1.25,2.63,.72,4.65-.88,2.32-2.68,4.05-5.39,5.18-2.71,1.13-5.89,1.69-9.55,1.69-2.96,0-5.91-.35-8.85-1.06l.35-5.51Z"></path><path class="cls-3" d="M794.33,186.33l2.99-11.35h-3.16l.88-3.35c1.59-.14,3.12-.6,4.58-1.37,1.46-.77,2.72-1.74,3.79-2.89,1.07-1.15,1.83-2.35,2.32-3.58h3.56l-1.78,6.76h5.85l-1.53,5.81h-.2c-.44-.6-.78-.98-1.01-1.14-.23-.16-.79-.24-1.68-.24h-2.59l-2.55,9.69c-.32,1.23-.13,2.18,.57,2.86,.7,.68,2.12,1.02,4.26,1.02l-3.43,4.08c-1.79,.19-3.25,.28-4.38,.28-.96,0-2.18-.16-3.67-.48-1.41-.4-2.35-1.09-2.8-2.05-.46-.97-.46-2.31,0-4.03Z"></path></g></g></g></svg>