<?xml version="1.0" encoding="UTF-8"?>
<!DOCTYPE svg PUBLIC "-//W3C//DTD SVG 1.1//EN" "http://www.w3.org/Graphics/SVG/1.1/DTD/svg11.dtd">
<svg xmlns="http://www.w3.org/2000/svg" version="1.1" width="281px" height="281px" style="shape-rendering:geometricPrecision; text-rendering:geometricPrecision; image-rendering:optimizeQuality; fill-rule:evenodd; clip-rule:evenodd" xmlns:xlink="http://www.w3.org/1999/xlink">
<g><path style="opacity:0.882" fill="#f8f8f8" d="M 122.5,-0.5 C 134.167,-0.5 145.833,-0.5 157.5,-0.5C 213.36,8.85274 251.86,39.8527 273,92.5C 276.16,102.474 278.66,112.474 280.5,122.5C 280.5,134.167 280.5,145.833 280.5,157.5C 271.147,213.36 240.147,251.86 187.5,273C 177.526,276.16 167.526,278.66 157.5,280.5C 145.833,280.5 134.167,280.5 122.5,280.5C 66.6401,271.147 28.1401,240.147 7,187.5C 3.83988,177.526 1.33988,167.526 -0.5,157.5C -0.5,145.833 -0.5,134.167 -0.5,122.5C 8.85274,66.6401 39.8527,28.1401 92.5,7C 102.474,3.83988 112.474,1.33988 122.5,-0.5 Z"/></g>
<g><path style="opacity:1" fill="#55504f" d="M 124.5,5.5 C 122.5,6.16667 120.5,6.83333 118.5,7.5C 115.833,7.83333 113.167,8.16667 110.5,8.5C 110.167,8.5 109.833,8.5 109.5,8.5C 108.833,8.5 108.167,8.5 107.5,8.5C 112.844,6.3671 118.511,5.3671 124.5,5.5 Z"/></g>
<g><path style="opacity:1" fill="#fdfafa" d="M 118.5,7.5 C 118.5,42.5 118.5,77.5 118.5,112.5C 81.8333,112.5 45.1667,112.5 8.5,112.5C 9.41738,109.583 10.084,106.583 10.5,103.5C 29.1696,103.667 47.8363,103.5 66.5,103C 53.9652,90.298 41.2985,77.798 28.5,65.5C 29.1098,64.609 29.4431,63.609 29.5,62.5C 30.8333,61.5 32.1667,60.5 33.5,59.5C 48.2985,73.7981 62.9652,88.2981 77.5,103C 83.8333,103.667 90.1667,103.667 96.5,103C 78.2983,84.9653 60.2983,66.7986 42.5,48.5C 46.5,44.1667 50.5,39.8333 54.5,35.5C 56.7488,34.9202 58.4154,33.5869 59.5,31.5C 61.0269,31.573 62.0269,30.9063 62.5,29.5C 64.1667,28.8333 65.8333,28.1667 67.5,27.5C 81.1667,41.5 94.8333,55.5 108.5,69.5C 108.56,70.0431 108.893,70.3764 109.5,70.5C 110.5,49.8441 110.833,29.1774 110.5,8.5C 113.167,8.16667 115.833,7.83333 118.5,7.5 Z"/></g>
<g><path style="opacity:1" fill="#ec4039" d="M 153.5,5.5 C 156.974,6.52495 160.64,7.19162 164.5,7.5C 164.168,42.6706 164.502,77.6706 165.5,112.5C 200.833,112.5 236.167,112.5 271.5,112.5C 271.5,113.167 271.833,113.5 272.5,113.5C 274.595,128.608 274.929,143.608 273.5,158.5C 272.833,160.5 272.167,162.5 271.5,164.5C 235.833,164.5 200.167,164.5 164.5,164.5C 164.5,200.167 164.5,235.833 164.5,271.5C 161.99,271.927 159.657,272.593 157.5,273.5C 155.833,273.5 154.167,273.5 152.5,273.5C 142.5,273.5 132.5,273.5 122.5,273.5C 122.167,273.5 121.833,273.5 121.5,273.5C 120.5,272.833 119.5,272.167 118.5,271.5C 118.5,235.833 118.5,200.167 118.5,164.5C 81.8333,164.5 45.1667,164.5 8.5,164.5C 8.16667,164.5 7.83333,164.5 7.5,164.5C 6.63699,158.873 5.97032,153.206 5.5,147.5C 5.42864,136.117 6.09531,124.784 7.5,113.5C 8.16667,113.5 8.5,113.167 8.5,112.5C 45.1667,112.5 81.8333,112.5 118.5,112.5C 118.5,77.5 118.5,42.5 118.5,7.5C 120.5,6.83333 122.5,6.16667 124.5,5.5C 134.197,4.19 143.863,4.19 153.5,5.5 Z"/></g>
<g><path style="opacity:1" fill="#4a4042" d="M 153.5,5.5 C 162.308,5.41812 170.641,7.08478 178.5,10.5C 176.708,10.634 175.042,10.3007 173.5,9.5C 171.194,9.00745 168.861,8.67412 166.5,8.5C 166.158,7.66175 165.492,7.32842 164.5,7.5C 160.64,7.19162 156.974,6.52495 153.5,5.5 Z"/></g>
<g><path style="opacity:1" fill="#fcfbfc" d="M 166.5,8.5 C 168.861,8.67412 171.194,9.00745 173.5,9.5C 173.333,28.8362 173.5,48.1695 174,67.5C 187.369,54.2985 200.535,40.9652 213.5,27.5C 214.391,28.1098 215.391,28.4431 216.5,28.5C 217.167,29.5 217.833,30.5 218.5,31.5C 203.833,46.8333 188.833,61.8333 173.5,76.5C 172.182,83.0112 172.182,89.6778 173.5,96.5C 174.107,96.3764 174.44,96.0431 174.5,95.5C 192.965,77.5351 211.299,59.3684 229.5,41C 230.094,40.5357 230.761,40.369 231.5,40.5C 233.833,43.5 236.5,46.1667 239.5,48.5C 240.757,51.4274 242.757,53.7607 245.5,55.5C 247.016,58.5331 249.016,61.1997 251.5,63.5C 251.5,64.1667 251.5,64.8333 251.5,65.5C 239.369,78.1318 227.035,90.6318 214.5,103C 232.83,103.5 251.164,103.667 269.5,103.5C 270.167,106.5 270.833,109.5 271.5,112.5C 236.167,112.5 200.833,112.5 165.5,112.5C 165.168,77.6627 165.502,42.996 166.5,8.5 Z"/></g>
<g><path style="opacity:1" fill="#fae1e0" d="M 164.5,7.5 C 165.492,7.32842 166.158,7.66175 166.5,8.5C 165.502,42.996 165.168,77.6627 165.5,112.5C 164.502,77.6706 164.168,42.6706 164.5,7.5 Z"/></g>
<g><path style="opacity:1" fill="#293b8e" d="M 107.5,8.5 C 108.167,8.5 108.833,8.5 109.5,8.5C 109.83,29.0069 109.497,49.3402 108.5,69.5C 94.8333,55.5 81.1667,41.5 67.5,27.5C 67.8333,26.8333 68.1667,26.1667 68.5,25.5C 69.6594,23.7497 71.326,22.7497 73.5,22.5C 75.8477,22.4077 77.5144,21.4077 78.5,19.5C 82.836,19.1631 86.5026,17.4965 89.5,14.5C 95.7668,13.0778 101.767,11.0778 107.5,8.5 Z"/></g>
<g><path style="opacity:1" fill="#d7daea" d="M 109.5,8.5 C 109.833,8.5 110.167,8.5 110.5,8.5C 110.833,29.1774 110.5,49.8441 109.5,70.5C 108.893,70.3764 108.56,70.0431 108.5,69.5C 109.497,49.3402 109.83,29.0069 109.5,8.5 Z"/></g>
<g><path style="opacity:1" fill="#293a8d" d="M 173.5,9.5 C 175.042,10.3007 176.708,10.634 178.5,10.5C 188.127,12.8152 197.127,16.4819 205.5,21.5C 206.657,23.1376 207.824,24.8043 209,26.5C 210.414,25.5868 211.914,25.5868 213.5,26.5C 213.5,26.8333 213.5,27.1667 213.5,27.5C 200.535,40.9652 187.369,54.2985 174,67.5C 173.5,48.1695 173.333,28.8362 173.5,9.5 Z"/></g>
<g><path style="opacity:1" fill="#27273b" d="M 107.5,8.5 C 101.767,11.0778 95.7668,13.0778 89.5,14.5C 95.0852,11.5271 101.085,9.52709 107.5,8.5 Z"/></g>
<g><path style="opacity:1" fill="#242752" d="M 89.5,14.5 C 86.5026,17.4965 82.836,19.1631 78.5,19.5C 81.7403,17.049 85.4069,15.3824 89.5,14.5 Z"/></g>
<g><path style="opacity:1" fill="#20213c" d="M 78.5,19.5 C 77.5144,21.4077 75.8477,22.4077 73.5,22.5C 74.6594,20.7497 76.326,19.7497 78.5,19.5 Z"/></g>
<g><path style="opacity:1" fill="#2d2e55" d="M 205.5,21.5 C 208.511,22.6693 211.178,24.336 213.5,26.5C 211.914,25.5868 210.414,25.5868 209,26.5C 207.824,24.8043 206.657,23.1376 205.5,21.5 Z"/></g>
<g><path style="opacity:1" fill="#404042" d="M 213.5,27.5 C 213.5,27.1667 213.5,26.8333 213.5,26.5C 215.027,26.427 216.027,27.0937 216.5,28.5C 215.391,28.4431 214.391,28.1098 213.5,27.5 Z"/></g>
<g><path style="opacity:1" fill="#3f4044" d="M 68.5,25.5 C 68.1667,26.1667 67.8333,26.8333 67.5,27.5C 65.8333,28.1667 64.1667,28.8333 62.5,29.5C 63.8021,27.1782 65.8021,25.8449 68.5,25.5 Z"/></g>
<g><path style="opacity:1" fill="#4e413f" d="M 216.5,28.5 C 219.37,29.4333 221.704,31.1 223.5,33.5C 221.833,32.8333 220.167,32.1667 218.5,31.5C 217.833,30.5 217.167,29.5 216.5,28.5 Z"/></g>
<g><path style="opacity:1" fill="#484848" d="M 62.5,29.5 C 62.0269,30.9063 61.0269,31.573 59.5,31.5C 59.9731,30.0937 60.9731,29.427 62.5,29.5 Z"/></g>
<g><path style="opacity:1" fill="#4d4d4d" d="M 59.5,31.5 C 58.4154,33.5869 56.7488,34.9202 54.5,35.5C 55.5846,33.4131 57.2512,32.0798 59.5,31.5 Z"/></g>
<g><path style="opacity:1" fill="#ed443c" d="M 218.5,31.5 C 220.167,32.1667 221.833,32.8333 223.5,33.5C 224.911,35.914 226.911,37.5806 229.5,38.5C 230.5,38.8333 231.167,39.5 231.5,40.5C 230.761,40.369 230.094,40.5357 229.5,41C 211.299,59.3684 192.965,77.5351 174.5,95.5C 173.51,89.3554 173.177,83.0221 173.5,76.5C 188.833,61.8333 203.833,46.8333 218.5,31.5 Z"/></g>
<g><path style="opacity:1" fill="#54413e" d="M 223.5,33.5 C 226.089,34.4194 228.089,36.086 229.5,38.5C 226.911,37.5806 224.911,35.914 223.5,33.5 Z"/></g>
<g><path style="opacity:1" fill="#58504f" d="M 54.5,35.5 C 50.5,39.8333 46.5,44.1667 42.5,48.5C 40.5,50.1667 38.5,51.8333 36.5,53.5C 41.5,46.5 47.5,40.5 54.5,35.5 Z"/></g>
<g><path style="opacity:1" fill="#505050" d="M 231.5,40.5 C 235.167,42.1667 237.833,44.8333 239.5,48.5C 236.5,46.1667 233.833,43.5 231.5,40.5 Z"/></g>
<g><path style="opacity:1" fill="#ed3f37" d="M 42.5,48.5 C 60.2983,66.7986 78.2983,84.9653 96.5,103C 90.1667,103.667 83.8333,103.667 77.5,103C 62.9652,88.2981 48.2985,73.7981 33.5,59.5C 34.5,57.5 35.5,55.5 36.5,53.5C 38.5,51.8333 40.5,50.1667 42.5,48.5 Z"/></g>
<g><path style="opacity:1" fill="#4d4d4d" d="M 239.5,48.5 C 242.243,50.2393 244.243,52.5726 245.5,55.5C 242.757,53.7607 240.757,51.4274 239.5,48.5 Z"/></g>
<g><path style="opacity:1" fill="#4e322e" d="M 36.5,53.5 C 35.5,55.5 34.5,57.5 33.5,59.5C 32.1667,60.5 30.8333,61.5 29.5,62.5C 31.1108,58.9485 33.4442,55.9485 36.5,53.5 Z"/></g>
<g><path style="opacity:1" fill="#4e4e4e" d="M 245.5,55.5 C 248.471,57.4426 250.471,60.1092 251.5,63.5C 249.016,61.1997 247.016,58.5331 245.5,55.5 Z"/></g>
<g><path style="opacity:1" fill="#404041" d="M 29.5,62.5 C 29.4431,63.609 29.1098,64.609 28.5,65.5C 28.1667,65.5 27.8333,65.5 27.5,65.5C 27.427,63.9731 28.0937,62.9731 29.5,62.5 Z"/></g>
<g><path style="opacity:1" fill="#3f3f40" d="M 251.5,63.5 C 252.906,63.9731 253.573,64.9731 253.5,66.5C 252.833,66.1667 252.167,65.8333 251.5,65.5C 251.5,64.8333 251.5,64.1667 251.5,63.5 Z"/></g>
<g><path style="opacity:1" fill="#2a3b8e" d="M 27.5,65.5 C 27.8333,65.5 28.1667,65.5 28.5,65.5C 41.2985,77.798 53.9652,90.298 66.5,103C 47.8363,103.5 29.1696,103.667 10.5,103.5C 12.6999,97.5669 14.6999,91.5669 16.5,85.5C 17.6589,81.8487 19.3256,78.5154 21.5,75.5C 22.9296,73.2561 24.9296,71.4228 27.5,70C 26.5868,68.5861 26.5868,67.0861 27.5,65.5 Z"/></g>
<g><path style="opacity:1" fill="#293a8e" d="M 251.5,65.5 C 252.167,65.8333 252.833,66.1667 253.5,66.5C 254.338,66.8417 254.672,67.5084 254.5,68.5C 254.427,70.0269 255.094,71.0269 256.5,71.5C 257.338,71.8417 257.672,72.5084 257.5,73.5C 257.427,75.0269 258.094,76.0269 259.5,76.5C 260.674,77.5137 261.34,78.847 261.5,80.5C 261.502,84.1645 262.835,87.1645 265.5,89.5C 266.238,93.7142 267.571,97.7142 269.5,101.5C 269.5,102.167 269.5,102.833 269.5,103.5C 251.164,103.667 232.83,103.5 214.5,103C 227.035,90.6318 239.369,78.1318 251.5,65.5 Z"/></g>
<g><path style="opacity:1" fill="#242752" d="M 27.5,65.5 C 26.5868,67.0861 26.5868,68.5861 27.5,70C 24.9296,71.4228 22.9296,73.2561 21.5,75.5C 23.0002,71.827 25.0002,68.4937 27.5,65.5 Z"/></g>
<g><path style="opacity:1" fill="#191929" d="M 254.5,68.5 C 255.906,68.9731 256.573,69.9731 256.5,71.5C 255.094,71.0269 254.427,70.0269 254.5,68.5 Z"/></g>
<g><path style="opacity:1" fill="#21212b" d="M 257.5,73.5 C 258.906,73.9731 259.573,74.9731 259.5,76.5C 258.094,76.0269 257.427,75.0269 257.5,73.5 Z"/></g>
<g><path style="opacity:1" fill="#f9c2c0" d="M 173.5,76.5 C 173.177,83.0221 173.51,89.3554 174.5,95.5C 174.44,96.0431 174.107,96.3764 173.5,96.5C 172.182,89.6778 172.182,83.0112 173.5,76.5 Z"/></g>
<g><path style="opacity:1" fill="#252644" d="M 261.5,80.5 C 263.592,83.0884 264.925,86.0884 265.5,89.5C 262.835,87.1645 261.502,84.1645 261.5,80.5 Z"/></g>
<g><path style="opacity:1" fill="#2b2c45" d="M 265.5,89.5 C 267.601,92.7966 268.935,96.4632 269.5,100.5C 269.5,100.833 269.5,101.167 269.5,101.5C 267.571,97.7142 266.238,93.7142 265.5,89.5 Z"/></g>
<g><path style="opacity:1" fill="#4f4d4e" d="M 269.5,100.5 C 271.489,104.497 272.489,108.83 272.5,113.5C 271.833,113.5 271.5,113.167 271.5,112.5C 270.833,109.5 270.167,106.5 269.5,103.5C 269.5,102.833 269.5,102.167 269.5,101.5C 269.5,101.167 269.5,100.833 269.5,100.5 Z"/></g>
<g><path style="opacity:1" fill="#414146" d="M 16.5,85.5 C 14.6999,91.5669 12.6999,97.5669 10.5,103.5C 10.084,106.583 9.41738,109.583 8.5,112.5C 8.5,113.167 8.16667,113.5 7.5,113.5C 8.92502,103.561 11.925,94.228 16.5,85.5 Z"/></g>
<g><path style="opacity:1" fill="#564543" d="M 7.5,113.5 C 6.09531,124.784 5.42864,136.117 5.5,147.5C 3.97215,136.061 4.63882,124.728 7.5,113.5 Z"/></g>
<g><path style="opacity:1" fill="#524647" d="M 273.5,158.5 C 273.681,165.269 272.347,171.602 269.5,177.5C 269.5,176.167 269.5,174.833 269.5,173.5C 270.531,171.039 271.198,168.373 271.5,165.5C 271.5,165.167 271.5,164.833 271.5,164.5C 272.167,162.5 272.833,160.5 273.5,158.5 Z"/></g>
<g><path style="opacity:1" fill="#4a494a" d="M 7.5,164.5 C 7.83333,164.5 8.16667,164.5 8.5,164.5C 8.5,164.833 8.5,165.167 8.5,165.5C 9.16667,168.167 9.83333,170.833 10.5,173.5C 10.5,173.833 10.5,174.167 10.5,174.5C 10.5,175.167 10.5,175.833 10.5,176.5C 8.58413,172.837 7.58413,168.837 7.5,164.5 Z"/></g>
<g><path style="opacity:1" fill="#fdfcfd" d="M 8.5,165.5 C 44.8333,165.5 81.1667,165.5 117.5,165.5C 117.5,200.833 117.5,236.167 117.5,271.5C 114.794,271.425 112.127,271.092 109.5,270.5C 109.667,249.831 109.5,229.164 109,208.5C 94.6315,222.701 80.4648,237.035 66.5,251.5C 65.609,250.89 64.609,250.557 63.5,250.5C 62.7377,248.738 61.4044,247.738 59.5,247.5C 59.5,247.167 59.5,246.833 59.5,246.5C 76.1319,230.368 92.6319,214.035 109,197.5C 109.831,191.141 109.664,184.807 108.5,178.5C 88.479,197.854 68.8123,217.521 49.5,237.5C 45.8536,235.183 42.5203,232.516 39.5,229.5C 38.5806,226.911 36.914,224.911 34.5,223.5C 34.2624,221.596 33.2624,220.262 31.5,219.5C 30.5294,217.517 29.5294,215.517 28.5,213.5C 40.8333,200.833 53.1667,188.167 65.5,175.5C 66.2891,175.217 66.9558,174.717 67.5,174C 48.5029,173.5 29.5029,173.333 10.5,173.5C 9.83333,170.833 9.16667,168.167 8.5,165.5 Z"/></g>
<g><path style="opacity:1" fill="#fdfcfd" d="M 271.5,165.5 C 271.198,168.373 270.531,171.039 269.5,173.5C 250.83,173.333 232.164,173.5 213.5,174C 226.368,187.035 239.368,199.869 252.5,212.5C 251.471,214.517 250.471,216.517 249.5,218.5C 249.167,218.5 248.833,218.5 248.5,218.5C 234.035,203.535 219.369,188.701 204.5,174C 198.141,173.169 191.807,173.336 185.5,174.5C 203.521,192.854 221.521,211.187 239.5,229.5C 235.5,233.833 231.5,238.167 227.5,242.5C 225.251,243.08 223.585,244.413 222.5,246.5C 220.596,246.738 219.262,247.738 218.5,249.5C 216.973,249.427 215.973,250.094 215.5,251.5C 215.167,251.5 214.833,251.5 214.5,251.5C 201.202,237.701 187.702,224.035 174,210.5C 173.5,230.164 173.333,249.831 173.5,269.5C 171.694,270.024 170.028,270.691 168.5,271.5C 167.5,271.5 166.5,271.5 165.5,271.5C 165.5,236.167 165.5,200.833 165.5,165.5C 200.833,165.5 236.167,165.5 271.5,165.5 Z"/></g>
<g><path style="opacity:1" fill="#fac3c1" d="M 8.5,165.5 C 8.5,165.167 8.5,164.833 8.5,164.5C 45.1667,164.5 81.8333,164.5 118.5,164.5C 118.5,200.167 118.5,235.833 118.5,271.5C 118.167,271.5 117.833,271.5 117.5,271.5C 117.5,236.167 117.5,200.833 117.5,165.5C 81.1667,165.5 44.8333,165.5 8.5,165.5 Z"/></g>
<g><path style="opacity:1" fill="#fbd2d0" d="M 271.5,164.5 C 271.5,164.833 271.5,165.167 271.5,165.5C 236.167,165.5 200.833,165.5 165.5,165.5C 165.5,200.833 165.5,236.167 165.5,271.5C 165.167,271.5 164.833,271.5 164.5,271.5C 164.5,235.833 164.5,200.167 164.5,164.5C 200.167,164.5 235.833,164.5 271.5,164.5 Z"/></g>
<g><path style="opacity:1" fill="#6a75b0" d="M 10.5,174.5 C 10.5,174.167 10.5,173.833 10.5,173.5C 29.5029,173.333 48.5029,173.5 67.5,174C 66.9558,174.717 66.2891,175.217 65.5,175.5C 47.3409,174.503 29.0076,174.17 10.5,174.5 Z"/></g>
<g><path style="opacity:1" fill="#293a8b" d="M 10.5,174.5 C 29.0076,174.17 47.3409,174.503 65.5,175.5C 53.1667,188.167 40.8333,200.833 28.5,213.5C 27.8333,213.5 27.1667,213.5 26.5,213.5C 19.2539,202.006 13.9205,189.673 10.5,176.5C 10.5,175.833 10.5,175.167 10.5,174.5 Z"/></g>
<g><path style="opacity:1" fill="#ed423a" d="M 248.5,218.5 C 247.89,219.391 247.557,220.391 247.5,221.5C 245.413,222.585 244.08,224.251 243.5,226.5C 242.167,227.5 240.833,228.5 239.5,229.5C 221.521,211.187 203.521,192.854 185.5,174.5C 191.807,173.336 198.141,173.169 204.5,174C 219.369,188.701 234.035,203.535 248.5,218.5 Z"/></g>
<g><path style="opacity:1" fill="#2c3c8d" d="M 269.5,173.5 C 269.5,174.833 269.5,176.167 269.5,177.5C 268.602,182.534 266.935,187.201 264.5,191.5C 263.069,192.78 262.402,194.447 262.5,196.5C 261.674,199.485 260.341,202.151 258.5,204.5C 257.094,204.973 256.427,205.973 256.5,207.5C 256.25,209.674 255.25,211.341 253.5,212.5C 253.167,212.5 252.833,212.5 252.5,212.5C 239.368,199.869 226.368,187.035 213.5,174C 232.164,173.5 250.83,173.333 269.5,173.5 Z"/></g>
<g><path style="opacity:1" fill="#ed423a" d="M 59.5,246.5 C 58.3951,245.4 57.0618,244.733 55.5,244.5C 54.0892,242.086 52.0892,240.419 49.5,239.5C 49.5,238.833 49.5,238.167 49.5,237.5C 68.8123,217.521 88.479,197.854 108.5,178.5C 109.664,184.807 109.831,191.141 109,197.5C 92.6319,214.035 76.1319,230.368 59.5,246.5 Z"/></g>
<g><path style="opacity:1" fill="#1f1f2c" d="M 264.5,191.5 C 264.598,193.553 263.931,195.22 262.5,196.5C 262.402,194.447 263.069,192.78 264.5,191.5 Z"/></g>
<g><path style="opacity:1" fill="#21202b" d="M 258.5,204.5 C 258.573,206.027 257.906,207.027 256.5,207.5C 256.427,205.973 257.094,204.973 258.5,204.5 Z"/></g>
<g><path style="opacity:1" fill="#293b8e" d="M 109.5,270.5 C 101.048,268.102 92.7148,265.435 84.5,262.5C 82.847,262.34 81.5137,261.674 80.5,260.5C 80.1699,257.891 78.6699,256.224 76,255.5C 73.7076,256.601 72.2076,255.768 71.5,253C 69.82,253.771 68.1533,253.605 66.5,252.5C 66.5,252.167 66.5,251.833 66.5,251.5C 80.4648,237.035 94.6315,222.701 109,208.5C 109.5,229.164 109.667,249.831 109.5,270.5 Z"/></g>
<g><path style="opacity:1" fill="#2a3b8e" d="M 214.5,251.5 C 213.293,252.189 211.959,252.355 210.5,252C 209.789,253.255 208.956,254.421 208,255.5C 205.472,254.481 203.972,255.481 203.5,258.5C 198.93,261.616 193.93,263.95 188.5,265.5C 184.137,264.736 180.804,266.069 178.5,269.5C 178.167,269.5 177.833,269.5 177.5,269.5C 176.167,269.5 174.833,269.5 173.5,269.5C 173.333,249.831 173.5,230.164 174,210.5C 187.702,224.035 201.202,237.701 214.5,251.5 Z"/></g>
<g><path style="opacity:1" fill="#464647" d="M 252.5,212.5 C 252.833,212.5 253.167,212.5 253.5,212.5C 253.155,215.198 251.822,217.198 249.5,218.5C 250.471,216.517 251.471,214.517 252.5,212.5 Z"/></g>
<g><path style="opacity:1" fill="#474747" d="M 26.5,213.5 C 27.1667,213.5 27.8333,213.5 28.5,213.5C 29.5294,215.517 30.5294,217.517 31.5,219.5C 29.3674,217.909 27.7007,215.909 26.5,213.5 Z"/></g>
<g><path style="opacity:1" fill="#473a39" d="M 248.5,218.5 C 248.833,218.5 249.167,218.5 249.5,218.5C 249.573,220.027 248.906,221.027 247.5,221.5C 247.557,220.391 247.89,219.391 248.5,218.5 Z"/></g>
<g><path style="opacity:1" fill="#444444" d="M 31.5,219.5 C 33.2624,220.262 34.2624,221.596 34.5,223.5C 32.7376,222.738 31.7376,221.404 31.5,219.5 Z"/></g>
<g><path style="opacity:1" fill="#4f403e" d="M 247.5,221.5 C 246.92,223.749 245.587,225.415 243.5,226.5C 244.08,224.251 245.413,222.585 247.5,221.5 Z"/></g>
<g><path style="opacity:1" fill="#4a4a4a" d="M 34.5,223.5 C 36.914,224.911 38.5806,226.911 39.5,229.5C 37.086,228.089 35.4194,226.089 34.5,223.5 Z"/></g>
<g><path style="opacity:1" fill="#575352" d="M 39.5,229.5 C 42.5203,232.516 45.8536,235.183 49.5,237.5C 49.5,238.167 49.5,238.833 49.5,239.5C 45.1667,237.167 41.8333,233.833 39.5,229.5 Z"/></g>
<g><path style="opacity:1" fill="#565656" d="M 243.5,226.5 C 239.167,232.833 233.833,238.167 227.5,242.5C 231.5,238.167 235.5,233.833 239.5,229.5C 240.833,228.5 242.167,227.5 243.5,226.5 Z"/></g>
<g><path style="opacity:1" fill="#502c27" d="M 49.5,239.5 C 52.0892,240.419 54.0892,242.086 55.5,244.5C 52.9108,243.581 50.9108,241.914 49.5,239.5 Z"/></g>
<g><path style="opacity:1" fill="#4d4d4d" d="M 227.5,242.5 C 226.415,244.587 224.749,245.92 222.5,246.5C 223.585,244.413 225.251,243.08 227.5,242.5 Z"/></g>
<g><path style="opacity:1" fill="#52251f" d="M 55.5,244.5 C 57.0618,244.733 58.3951,245.4 59.5,246.5C 59.5,246.833 59.5,247.167 59.5,247.5C 57.5956,247.262 56.2623,246.262 55.5,244.5 Z"/></g>
<g><path style="opacity:1" fill="#4c4c4c" d="M 222.5,246.5 C 221.738,248.262 220.404,249.262 218.5,249.5C 219.262,247.738 220.596,246.738 222.5,246.5 Z"/></g>
<g><path style="opacity:1" fill="#515252" d="M 59.5,247.5 C 61.4044,247.738 62.7377,248.738 63.5,250.5C 61.5956,250.262 60.2623,249.262 59.5,247.5 Z"/></g>
<g><path style="opacity:1" fill="#464648" d="M 63.5,250.5 C 64.609,250.557 65.609,250.89 66.5,251.5C 66.5,251.833 66.5,252.167 66.5,252.5C 64.9731,252.573 63.9731,251.906 63.5,250.5 Z"/></g>
<g><path style="opacity:1" fill="#4a4a4a" d="M 218.5,249.5 C 218.027,250.906 217.027,251.573 215.5,251.5C 215.973,250.094 216.973,249.427 218.5,249.5 Z"/></g>
<g><path style="opacity:1" fill="#31335f" d="M 214.5,251.5 C 214.833,251.5 215.167,251.5 215.5,251.5C 212.024,254.623 208.024,256.957 203.5,258.5C 203.972,255.481 205.472,254.481 208,255.5C 208.956,254.421 209.789,253.255 210.5,252C 211.959,252.355 213.293,252.189 214.5,251.5 Z"/></g>
<g><path style="opacity:1" fill="#242c63" d="M 66.5,252.5 C 68.1533,253.605 69.82,253.771 71.5,253C 72.2076,255.768 73.7076,256.601 76,255.5C 78.6699,256.224 80.1699,257.891 80.5,260.5C 75.1734,258.841 70.5067,256.174 66.5,252.5 Z"/></g>
<g><path style="opacity:1" fill="#3a3849" d="M 84.5,262.5 C 92.7148,265.435 101.048,268.102 109.5,270.5C 112.127,271.092 114.794,271.425 117.5,271.5C 117.833,271.5 118.167,271.5 118.5,271.5C 119.5,272.167 120.5,272.833 121.5,273.5C 108.299,272.43 95.9661,268.763 84.5,262.5 Z"/></g>
<g><path style="opacity:1" fill="#2a2d5b" d="M 188.5,265.5 C 185.322,267.009 181.989,268.342 178.5,269.5C 180.804,266.069 184.137,264.736 188.5,265.5 Z"/></g>
<g><path style="opacity:1" fill="#555557" d="M 173.5,269.5 C 174.833,269.5 176.167,269.5 177.5,269.5C 174.781,270.913 171.781,271.58 168.5,271.5C 170.028,270.691 171.694,270.024 173.5,269.5 Z"/></g>
<g><path style="opacity:1" fill="#473633" d="M 164.5,271.5 C 164.833,271.5 165.167,271.5 165.5,271.5C 166.5,271.5 167.5,271.5 168.5,271.5C 165.091,272.903 161.425,273.57 157.5,273.5C 159.657,272.593 161.99,271.927 164.5,271.5 Z"/></g>
<g><path style="opacity:1" fill="#7f6c68" d="M 122.5,273.5 C 132.5,273.5 142.5,273.5 152.5,273.5C 151.737,274.268 150.737,274.768 149.5,275C 140.277,275.875 131.277,275.375 122.5,273.5 Z"/></g>
</svg>
